<?xml version="1.0" encoding="utf-8"?><svg xmlns="http://www.w3.org/2000/svg" xmlns:xlink="http://www.w3.org/1999/xlink"><symbol viewBox="0 0 30 30" id="discord" xmlns="http://www.w3.org/2000/svg"><path d="M25.434 5.824A23.802 23.802 0 0019.559 4a.09.09 0 00-.095.045c-.253.451-.534 1.04-.731 1.503a21.974 21.974 0 00-6.599 0 15.208 15.208 0 00-.743-1.503.093.093 0 00-.094-.045 23.735 23.735 0 00-5.875 1.823.084.084 0 00-.039.033C1.641 11.447.616 16.9 1.12 22.285a.099.099 0 00.038.068 23.936 23.936 0 007.207 3.643.093.093 0 00.101-.033 17.11 17.11 0 001.475-2.399.091.091 0 00-.05-.127 15.763 15.763 0 01-2.252-1.073.093.093 0 01-.009-.153c.151-.114.303-.232.447-.35a.089.089 0 01.093-.013c4.724 2.156 9.838 2.156 14.506 0a.089.089 0 01.094.011c.145.12.296.238.449.352a.093.093 0 01-.008.153c-.72.42-1.467.776-2.253 1.072a.092.092 0 00-.049.128c.433.84.928 1.64 1.473 2.398a.091.091 0 00.102.034c2.358-.73 4.75-1.83 7.218-3.643a.093.093 0 00.038-.067c.602-6.226-1.008-11.634-4.268-16.428a.073.073 0 00-.037-.034zM10.645 19.006c-1.422 0-2.594-1.305-2.594-2.909 0-1.603 1.15-2.909 2.594-2.909 1.456 0 2.617 1.317 2.594 2.91 0 1.603-1.15 2.908-2.594 2.908zm9.59 0c-1.421 0-2.593-1.305-2.593-2.909 0-1.603 1.149-2.909 2.594-2.909 1.456 0 2.616 1.317 2.594 2.91 0 1.603-1.138 2.908-2.594 2.908z" fill-opacity=".85"/></symbol><symbol viewBox="0 0 30 30" id="medium" xmlns="http://www.w3.org/2000/svg"><path d="M25.925 7.377L28 5.427V5h-7.187l-5.122 12.525L9.864 5H2.328v.427l2.424 2.866a.99.99 0 01.328.833V20.39a1.27 1.27 0 01-.35 1.118L2 24.758v.422h7.74v-.427l-2.73-3.245a1.31 1.31 0 01-.375-1.118v-9.743l6.794 14.538h.79l5.842-14.538v11.581c0 .306 0 .368-.203.569l-2.102 1.997v.428h10.196v-.427l-2.026-1.948a.587.587 0 01-.231-.569V7.945a.584.584 0 01.23-.568z" fill-opacity=".85"/></symbol><symbol viewBox="0 0 30 30" id="telegram" xmlns="http://www.w3.org/2000/svg"><path d="M12.272 18.5l-.433 6.142c.62 0 .888-.269 1.21-.59l2.904-2.8 6.019 4.445c1.104.62 1.881.293 2.179-1.024l3.95-18.67h.002c.35-1.646-.59-2.29-1.666-1.886L3.215 13.083c-1.585.62-1.56 1.511-.27 1.915l5.938 1.862 13.79-8.702c.649-.433 1.24-.193.754.24L12.272 18.5z" fill-opacity=".85"/></symbol><symbol viewBox="0 0 30 30" id="twitter" xmlns="http://www.w3.org/2000/svg"><path d="M25.328 9.34A10.72 10.72 0 0028 6.535c-.967.429-1.997.714-3.071.852a5.361 5.361 0 002.345-2.985 10.58 10.58 0 01-3.38 1.308A5.306 5.306 0 0020.001 4c-2.951 0-5.327 2.428-5.327 5.403 0 .429.036.84.123 1.232-4.43-.22-8.352-2.371-10.987-5.651a5.5 5.5 0 00-.73 2.73c0 1.872.95 3.53 2.368 4.49a5.214 5.214 0 01-2.408-.665v.06c0 2.625 1.847 4.805 4.27 5.308a5.217 5.217 0 01-1.397.178 4.68 4.68 0 01-1.009-.092c.69 2.14 2.651 3.713 4.98 3.764a10.624 10.624 0 01-6.609 2.304c-.437 0-.856-.02-1.275-.074a14.865 14.865 0 008.177 2.425c9.407 0 15.537-7.954 15.151-16.072z" fill-opacity=".85"/></symbol></svg>