<?xml version="1.0" standalone="no"?>
<!DOCTYPE svg PUBLIC "-//W3C//DTD SVG 20010904//EN"
 "http://www.w3.org/TR/2001/REC-SVG-20010904/DTD/svg10.dtd">
<svg version="1.0" xmlns="http://www.w3.org/2000/svg"
 width="700.000000pt" height="700.000000pt" viewBox="0 0 700.000000 700.000000"
 preserveAspectRatio="xMidYMid meet">
<metadata>
Created by potrace 1.14, written by Peter Selinger 2001-2017
</metadata>
<g transform="translate(0.000000,700.000000) scale(0.100000,-0.100000)"
fill="#000000" stroke="none">
<path d="M966 6978 c-5 -26 -16 -88 -23 -133 -2 -16 -11 -68 -19 -115 -8 -47
-16 -98 -19 -115 -3 -16 -7 -39 -10 -51 -3 -12 -7 -39 -10 -60 -4 -21 -13 -75
-20 -119 -8 -44 -17 -93 -19 -110 -25 -152 -68 -409 -76 -445 -5 -25 -12 -67
-15 -94 -3 -27 -8 -52 -10 -56 -2 -3 -6 -26 -10 -50 -4 -25 -15 -97 -26 -160
-11 -63 -22 -126 -24 -140 -2 -14 -16 -95 -30 -180 -15 -85 -29 -168 -31 -185
-6 -35 -22 -130 -28 -161 -5 -23 -65 -373 -72 -419 -2 -16 -9 -57 -15 -90 -6
-33 -13 -73 -16 -90 -2 -16 -13 -79 -23 -140 -11 -60 -44 -258 -75 -440 -30
-181 -60 -352 -65 -380 -5 -27 -11 -63 -14 -80 -2 -16 -9 -57 -15 -90 -6 -33
-13 -76 -16 -95 -3 -19 -7 -46 -10 -60 -3 -14 -7 -38 -10 -55 -3 -16 -7 -41
-9 -55 -3 -14 -17 -95 -31 -180 -14 -85 -28 -166 -31 -180 -2 -14 -7 -43 -10
-65 -3 -22 -12 -74 -20 -115 -19 -101 -19 -105 13 -108 14 -1 28 -4 31 -6 2
-2 -10 -53 -27 -113 -17 -60 -31 -112 -31 -115 0 -3 520 -6 1156 -6 l1156 0
31 26 c39 35 124 110 159 142 15 14 40 36 56 50 16 14 46 41 68 60 21 19 116
102 209 185 94 82 172 152 175 155 3 3 43 39 90 80 47 41 93 82 103 92 15 15
17 40 17 213 0 149 -3 195 -12 196 -16 1 -241 6 -597 13 -150 2 -275 6 -277 8
-2 2 -4 41 -5 86 -1 83 -1 83 38 130 22 26 171 209 333 407 386 473 374 459
381 465 3 3 24 29 47 58 l42 53 -33 27 c-17 14 -34 27 -36 29 -2 2 3 11 12 21
10 10 17 21 17 24 0 4 -58 50 -130 103 l-130 97 278 200 c152 110 278 201 279
201 0 1 4 43 8 92 9 126 14 193 20 245 3 25 7 83 10 130 3 47 8 96 10 110 2
14 6 68 10 120 4 52 8 111 10 130 2 19 6 72 10 117 3 45 7 99 10 120 2 21 6
72 10 115 l6 76 -31 22 c-28 20 -30 25 -26 76 4 60 7 55 -75 124 -30 25 -74
63 -99 85 -25 22 -76 67 -115 100 -38 32 -77 66 -86 75 -9 8 -38 34 -65 57
-27 22 -80 69 -119 102 l-70 61 -1012 0 -1013 0 -4 -22z m1649 -1055 c-3 -27
-10 -75 -15 -108 -5 -33 -11 -82 -15 -110 -3 -27 -8 -61 -10 -75 -7 -47 -15
-105 -20 -150 -3 -25 -8 -56 -10 -70 -2 -14 -7 -43 -10 -65 -12 -95 -15 -121
-19 -140 -3 -20 -12 -20 -360 -22 l-358 -3 7 58 c3 31 8 64 10 72 2 8 6 33 9
55 4 34 50 350 60 410 2 11 9 59 16 108 l13 87 354 0 355 0 -7 -47z m-260
-1940 c-3 -37 -8 -69 -9 -72 -2 -3 -7 -31 -10 -62 -4 -31 -9 -67 -11 -79 -2
-12 -7 -48 -11 -79 -3 -31 -7 -63 -9 -71 -1 -8 -6 -40 -11 -70 -4 -30 -8 -57
-9 -60 -1 -3 -5 -34 -9 -70 -5 -36 -10 -73 -12 -84 -2 -10 -6 -43 -10 -73 -3
-30 -9 -66 -13 -80 l-7 -27 -377 0 c-330 -1 -376 1 -373 14 3 8 8 35 11 60 4
25 9 54 11 65 2 11 6 40 9 65 3 25 12 83 20 130 7 47 16 102 19 123 13 87 18
115 27 177 11 68 13 77 23 150 4 25 9 54 11 65 2 11 4 26 4 33 1 9 82 12 372
12 l371 0 -7 -67z"/>
<path d="M4590 5025 c-7 -18 -11 -50 -26 -175 -3 -19 -18 -134 -35 -255 -17
-121 -32 -233 -34 -250 -2 -16 -6 -52 -10 -80 -12 -80 -12 -85 -14 -188 l-1
-98 -222 3 -223 3 -1 451 -1 452 -37 66 -37 66 -47 -62 c-26 -35 -52 -70 -59
-78 -7 -8 -154 -202 -328 -430 -173 -228 -426 -561 -562 -739 -243 -318 -248
-326 -246 -369 3 -53 9 -98 16 -109 3 -5 199 -8 437 -8 l431 0 -5 -155 c-5
-141 -8 -254 -21 -695 -12 -434 -16 -568 -19 -653 -2 -50 1 -92 5 -92 5 0 10
-56 11 -125 l3 -125 150 266 c83 147 163 290 178 318 16 28 70 123 119 211 50
88 119 210 153 270 34 61 92 162 128 225 35 63 85 151 109 195 25 44 63 112
85 150 22 39 53 93 68 120 15 28 55 99 89 158 82 145 96 172 135 242 19 33 37
65 41 70 4 6 24 42 45 80 20 39 41 74 45 78 6 7 -10 96 -28 147 -3 8 -6 20 -7
26 -2 8 30 11 101 10 57 0 104 -3 104 -7 0 -6 -57 -119 -585 -1165 -235 -465
-285 -570 -290 -615 -3 -30 -10 -81 -15 -114 -5 -33 -11 -78 -14 -100 -16
-120 -37 -284 -41 -313 -3 -18 -8 -54 -11 -80 -3 -26 -7 -58 -9 -72 -2 -14 -9
-63 -15 -110 -6 -47 -13 -100 -16 -117 -2 -18 -6 -48 -8 -65 -3 -18 -10 -71
-16 -118 -13 -100 -20 -154 -25 -195 -17 -122 -66 -489 -70 -530 -3 -27 -8
-61 -10 -75 -3 -14 -7 -43 -10 -65 -2 -22 -7 -60 -10 -85 -3 -25 -8 -62 -10
-82 l-5 -38 565 0 565 0 1 23 c0 12 0 69 0 127 0 87 15 245 44 451 3 20 8 55
10 79 2 24 7 59 10 79 5 36 11 82 20 156 3 22 12 90 20 150 8 61 17 130 20
155 7 64 15 121 20 150 2 14 7 52 10 85 3 33 8 71 10 85 2 14 7 45 10 70 3 25
8 56 10 70 3 14 7 48 10 75 3 28 7 66 10 85 3 19 7 58 10 86 3 28 7 59 9 70 2
10 7 49 11 87 4 37 12 70 17 73 5 4 245 6 531 6 l522 1 1 121 c1 66 4 150 9
186 4 36 9 76 10 90 4 46 17 155 20 171 2 9 6 52 10 95 4 43 9 81 10 84 2 3 6
41 10 85 4 44 9 88 10 97 5 25 18 149 19 178 l1 25 -511 -1 -512 0 4 36 c1 19
5 62 8 95 3 33 8 74 10 90 3 17 8 57 11 90 4 33 8 71 10 85 3 13 9 70 15 125
6 55 13 107 15 115 5 14 73 16 615 15 533 0 609 2 612 15 2 8 3 60 3 115 -1
55 2 103 7 106 5 3 11 21 13 40 3 19 7 57 10 84 4 28 8 61 10 75 2 14 6 52 10
85 3 33 7 71 10 85 2 14 7 50 10 81 3 31 7 66 10 77 2 11 7 53 10 93 4 40 9
82 11 93 2 12 7 49 10 84 5 49 4 62 -7 63 -8 1 -515 2 -1128 3 -1105 1 -1113
1 -1121 -19z"/>
</g>
</svg>
