<svg width="120" height="60" fill="none" xmlns="http://www.w3.org/2000/svg"><g opacity=".6" fill-rule="evenodd" clip-rule="evenodd" fill="#FFB335"><path d="M9.8 12L0 2.2V.8l10 10 10-10v1.4L10.2 12h-.4zm-4 0L0 6.2V4.8L7.2 12H5.8zm8.4 0L20 6.2V4.8L12.8 12h1.4zM9.8 0l.2.2.2-.2h-.4zm-4 0L10 4.2 14.2 0h-1.4L10 2.8 7.2 0H5.8zM29.8 12L20 2.2V.8l10 10 10-10v1.4L30.2 12h-.4zm-4 0L20 6.2V4.8l7.2 7.2h-1.4zm8.4 0L40 6.2V4.8L32.8 12h1.4zM29.8 0l.2.2.2-.2h-.4zm-4 0L30 4.2 34.2 0h-1.4L30 2.8 27.2 0h-1.4zM49.8 12L40 2.2V.8l10 10 10-10v1.4L50.2 12h-.4zm-4 0L40 6.2V4.8l7.2 7.2h-1.4zm8.4 0L60 6.2V4.8L52.8 12h1.4zM49.8 0l.2.2.2-.2h-.4zm-4 0L50 4.2 54.2 0h-1.4L50 2.8 47.2 0h-1.4zM69.8 12L60 2.2V.8l10 10 10-10v1.4L70.2 12h-.4zm-4 0L60 6.2V4.8l7.2 7.2h-1.4zm8.4 0L80 6.2V4.8L72.8 12h1.4zM69.8 0l.2.2.2-.2h-.4zm-4 0L70 4.2 74.2 0h-1.4L70 2.8 67.2 0h-1.4z"/><path d="M49.8 12L40 2.2V.8l10 10 10-10v1.4L50.2 12h-.4zm-4 0L40 6.2V4.8l7.2 7.2h-1.4zm8.4 0L60 6.2V4.8L52.8 12h1.4zM49.8 0l.2.2.2-.2h-.4zm-4 0L50 4.2 54.2 0h-1.4L50 2.8 47.2 0h-1.4zM69.8 12L60 2.2V.8l10 10 10-10v1.4L70.2 12h-.4zm-4 0L60 6.2V4.8l7.2 7.2h-1.4zm8.4 0L80 6.2V4.8L72.8 12h1.4zM69.8 0l.2.2.2-.2h-.4zm-4 0L70 4.2 74.2 0h-1.4L70 2.8 67.2 0h-1.4zM89.8 12L80 2.2V.8l10 10 10-10v1.4L90.2 12h-.4zm-4 0L80 6.2V4.8l7.2 7.2h-1.4zm8.4 0l5.8-5.8V4.8L92.8 12h1.4zM89.8 0l.2.2.2-.2h-.4zm-4 0L90 4.2 94.2 0h-1.4L90 2.8 87.2 0h-1.4zM109.8 12L100 2.2V.8l10 10 10-10v1.4l-9.8 9.8h-.4zm-4 0L100 6.2V4.8l7.2 7.2h-1.4zm8.4 0l5.8-5.8V4.8l-7.2 7.2h1.4zm-4.4-12l.2.2.2-.2h-.4zm-4 0l4.2 4.2 4.2-4.2h-1.4L110 2.8 107.2 0h-1.4z"/><path d="M89.8 12L80 2.2V.8l10 10 10-10v1.4L90.2 12h-.4zm-4 0L80 6.2V4.8l7.2 7.2h-1.4zm8.4 0l5.8-5.8V4.8L92.8 12h1.4zM89.8 0l.2.2.2-.2h-.4zm-4 0L90 4.2 94.2 0h-1.4L90 2.8 87.2 0h-1.4zM109.8 12L100 2.2V.8l10 10 10-10v1.4l-9.8 9.8h-.4zm-4 0L100 6.2V4.8l7.2 7.2h-1.4zm8.4 0l5.8-5.8V4.8l-7.2 7.2h1.4zm-4.4-12l.2.2.2-.2h-.4zm-4 0l4.2 4.2 4.2-4.2h-1.4L110 2.8 107.2 0h-1.4z"/><path d="M89.8 12L80 2.2V.8l10 10 10-10v1.4L90.2 12h-.4zm-4 0L80 6.2V4.8l7.2 7.2h-1.4zm8.4 0l5.8-5.8V4.8L92.8 12h1.4zM89.8 0l.2.2.2-.2h-.4zm-4 0L90 4.2 94.2 0h-1.4L90 2.8 87.2 0h-1.4zM109.8 12L100 2.2V.8l10 10 10-10v1.4l-9.8 9.8h-.4zm-4 0L100 6.2V4.8l7.2 7.2h-1.4zm8.4 0l5.8-5.8V4.8l-7.2 7.2h1.4zm-4.4-12l.2.2.2-.2h-.4zm-4 0l4.2 4.2 4.2-4.2h-1.4L110 2.8 107.2 0h-1.4z"/><path d="M89.8 12L80 2.2V.8l10 10 10-10v1.4L90.2 12h-.4zm-4 0L80 6.2V4.8l7.2 7.2h-1.4zm8.4 0l5.8-5.8V4.8L92.8 12h1.4zM89.8 0l.2.2.2-.2h-.4zm-4 0L90 4.2 94.2 0h-1.4L90 2.8 87.2 0h-1.4zM109.8 12L100 2.2V.8l10 10 10-10v1.4l-9.8 9.8h-.4zm-4 0L100 6.2V4.8l7.2 7.2h-1.4zm8.4 0l5.8-5.8V4.8l-7.2 7.2h1.4zm-4.4-12l.2.2.2-.2h-.4zm-4 0l4.2 4.2 4.2-4.2h-1.4L110 2.8 107.2 0h-1.4z"/><path d="M89.8 12L80 2.2V.8l10 10 10-10v1.4L90.2 12h-.4zm-4 0L80 6.2V4.8l7.2 7.2h-1.4zm8.4 0l5.8-5.8V4.8L92.8 12h1.4zM89.8 0l.2.2.2-.2h-.4zm-4 0L90 4.2 94.2 0h-1.4L90 2.8 87.2 0h-1.4zM109.8 12L100 2.2V.8l10 10 10-10v1.4l-9.8 9.8h-.4zm-4 0L100 6.2V4.8l7.2 7.2h-1.4zm8.4 0l5.8-5.8V4.8l-7.2 7.2h1.4zm-4.4-12l.2.2.2-.2h-.4zm-4 0l4.2 4.2 4.2-4.2h-1.4L110 2.8 107.2 0h-1.4z"/><path d="M89.8 12L80 2.2V.8l10 10 10-10v1.4L90.2 12h-.4zm-4 0L80 6.2V4.8l7.2 7.2h-1.4zm8.4 0l5.8-5.8V4.8L92.8 12h1.4zM89.8 0l.2.2.2-.2h-.4zm-4 0L90 4.2 94.2 0h-1.4L90 2.8 87.2 0h-1.4zM109.8 12L100 2.2V.8l10 10 10-10v1.4l-9.8 9.8h-.4zm-4 0L100 6.2V4.8l7.2 7.2h-1.4zm8.4 0l5.8-5.8V4.8l-7.2 7.2h1.4zm-4.4-12l.2.2.2-.2h-.4zm-4 0l4.2 4.2 4.2-4.2h-1.4L110 2.8 107.2 0h-1.4z"/><path d="M89.8 12L80 2.2V.8l10 10 10-10v1.4L90.2 12h-.4zm-4 0L80 6.2V4.8l7.2 7.2h-1.4zm8.4 0l5.8-5.8V4.8L92.8 12h1.4zM89.8 0l.2.2.2-.2h-.4zm-4 0L90 4.2 94.2 0h-1.4L90 2.8 87.2 0h-1.4zM109.8 12L100 2.2V.8l10 10 10-10v1.4l-9.8 9.8h-.4zm-4 0L100 6.2V4.8l7.2 7.2h-1.4zm8.4 0l5.8-5.8V4.8l-7.2 7.2h1.4zm-4.4-12l.2.2.2-.2h-.4zm-4 0l4.2 4.2 4.2-4.2h-1.4L110 2.8 107.2 0h-1.4z"/><path d="M89.8 12L80 2.2V.8l10 10 10-10v1.4L90.2 12h-.4zm-4 0L80 6.2V4.8l7.2 7.2h-1.4zm8.4 0l5.8-5.8V4.8L92.8 12h1.4zM89.8 0l.2.2.2-.2h-.4zm-4 0L90 4.2 94.2 0h-1.4L90 2.8 87.2 0h-1.4zM109.8 12L100 2.2V.8l10 10 10-10v1.4l-9.8 9.8h-.4zm-4 0L100 6.2V4.8l7.2 7.2h-1.4zm8.4 0l5.8-5.8V4.8l-7.2 7.2h1.4zm-4.4-12l.2.2.2-.2h-.4zm-4 0l4.2 4.2 4.2-4.2h-1.4L110 2.8 107.2 0h-1.4z"/><path d="M89.8 12L80 2.2V.8l10 10 10-10v1.4L90.2 12h-.4zm-4 0L80 6.2V4.8l7.2 7.2h-1.4zm8.4 0l5.8-5.8V4.8L92.8 12h1.4zM89.8 0l.2.2.2-.2h-.4zm-4 0L90 4.2 94.2 0h-1.4L90 2.8 87.2 0h-1.4zM109.8 12L100 2.2V.8l10 10 10-10v1.4l-9.8 9.8h-.4zm-4 0L100 6.2V4.8l7.2 7.2h-1.4zm8.4 0l5.8-5.8V4.8l-7.2 7.2h1.4zm-4.4-12l.2.2.2-.2h-.4zm-4 0l4.2 4.2 4.2-4.2h-1.4L110 2.8 107.2 0h-1.4z"/><path d="M89.8 12L80 2.2V.8l10 10 10-10v1.4L90.2 12h-.4zm-4 0L80 6.2V4.8l7.2 7.2h-1.4zm8.4 0l5.8-5.8V4.8L92.8 12h1.4zM89.8 0l.2.2.2-.2h-.4zm-4 0L90 4.2 94.2 0h-1.4L90 2.8 87.2 0h-1.4zM109.8 12L100 2.2V.8l10 10 10-10v1.4l-9.8 9.8h-.4zm-4 0L100 6.2V4.8l7.2 7.2h-1.4zm8.4 0l5.8-5.8V4.8l-7.2 7.2h1.4zm-4.4-12l.2.2.2-.2h-.4zm-4 0l4.2 4.2 4.2-4.2h-1.4L110 2.8 107.2 0h-1.4zM89.8 24L80 14.2v-1.4l10 10 10-10v1.4L90.2 24h-.4zm-4 0L80 18.2v-1.4l7.2 7.2h-1.4zm8.4 0l5.8-5.8v-1.4L92.8 24h1.4zm-4.4-12l.2.2.2-.2h-.4zm-4 0l4.2 4.2 4.2-4.2h-1.4L90 14.8 87.2 12h-1.4z"/><path d="M109.8 24l-9.8-9.8v-1.4l10 10 10-10v1.4l-9.8 9.8h-.4zm-4 0l-5.8-5.8v-1.4l7.2 7.2h-1.4zm8.4 0l5.8-5.8v-1.4l-7.2 7.2h1.4zm-4.4-12l.2.2.2-.2h-.4zm-4 0l4.2 4.2 4.2-4.2h-1.4l-2.8 2.8-2.8-2.8h-1.4zM89.8 24L80 14.2v-1.4l10 10 10-10v1.4L90.2 24h-.4zm-4 0L80 18.2v-1.4l7.2 7.2h-1.4zm8.4 0l5.8-5.8v-1.4L92.8 24h1.4zm-4.4-12l.2.2.2-.2h-.4zm-4 0l4.2 4.2 4.2-4.2h-1.4L90 14.8 87.2 12h-1.4z"/><path d="M109.8 24l-9.8-9.8v-1.4l10 10 10-10v1.4l-9.8 9.8h-.4zm-4 0l-5.8-5.8v-1.4l7.2 7.2h-1.4zm8.4 0l5.8-5.8v-1.4l-7.2 7.2h1.4zm-4.4-12l.2.2.2-.2h-.4zm-4 0l4.2 4.2 4.2-4.2h-1.4l-2.8 2.8-2.8-2.8h-1.4zM89.8 24L80 14.2v-1.4l10 10 10-10v1.4L90.2 24h-.4zm-4 0L80 18.2v-1.4l7.2 7.2h-1.4zm8.4 0l5.8-5.8v-1.4L92.8 24h1.4zm-4.4-12l.2.2.2-.2h-.4zm-4 0l4.2 4.2 4.2-4.2h-1.4L90 14.8 87.2 12h-1.4z"/><path d="M109.8 24l-9.8-9.8v-1.4l10 10 10-10v1.4l-9.8 9.8h-.4zm-4 0l-5.8-5.8v-1.4l7.2 7.2h-1.4zm8.4 0l5.8-5.8v-1.4l-7.2 7.2h1.4zm-4.4-12l.2.2.2-.2h-.4zm-4 0l4.2 4.2 4.2-4.2h-1.4l-2.8 2.8-2.8-2.8h-1.4zM89.8 24L80 14.2v-1.4l10 10 10-10v1.4L90.2 24h-.4zm-4 0L80 18.2v-1.4l7.2 7.2h-1.4zm8.4 0l5.8-5.8v-1.4L92.8 24h1.4zm-4.4-12l.2.2.2-.2h-.4zm-4 0l4.2 4.2 4.2-4.2h-1.4L90 14.8 87.2 12h-1.4z"/><path d="M109.8 24l-9.8-9.8v-1.4l10 10 10-10v1.4l-9.8 9.8h-.4zm-4 0l-5.8-5.8v-1.4l7.2 7.2h-1.4zm8.4 0l5.8-5.8v-1.4l-7.2 7.2h1.4zm-4.4-12l.2.2.2-.2h-.4zm-4 0l4.2 4.2 4.2-4.2h-1.4l-2.8 2.8-2.8-2.8h-1.4zM89.8 24L80 14.2v-1.4l10 10 10-10v1.4L90.2 24h-.4zm-4 0L80 18.2v-1.4l7.2 7.2h-1.4zm8.4 0l5.8-5.8v-1.4L92.8 24h1.4zm-4.4-12l.2.2.2-.2h-.4zm-4 0l4.2 4.2 4.2-4.2h-1.4L90 14.8 87.2 12h-1.4z"/><path d="M109.8 24l-9.8-9.8v-1.4l10 10 10-10v1.4l-9.8 9.8h-.4zm-4 0l-5.8-5.8v-1.4l7.2 7.2h-1.4zm8.4 0l5.8-5.8v-1.4l-7.2 7.2h1.4zm-4.4-12l.2.2.2-.2h-.4zm-4 0l4.2 4.2 4.2-4.2h-1.4l-2.8 2.8-2.8-2.8h-1.4zM89.8 24L80 14.2v-1.4l10 10 10-10v1.4L90.2 24h-.4zm-4 0L80 18.2v-1.4l7.2 7.2h-1.4zm8.4 0l5.8-5.8v-1.4L92.8 24h1.4zm-4.4-12l.2.2.2-.2h-.4zm-4 0l4.2 4.2 4.2-4.2h-1.4L90 14.8 87.2 12h-1.4z"/><path d="M109.8 24l-9.8-9.8v-1.4l10 10 10-10v1.4l-9.8 9.8h-.4zm-4 0l-5.8-5.8v-1.4l7.2 7.2h-1.4zm8.4 0l5.8-5.8v-1.4l-7.2 7.2h1.4zm-4.4-12l.2.2.2-.2h-.4zm-4 0l4.2 4.2 4.2-4.2h-1.4l-2.8 2.8-2.8-2.8h-1.4zM89.8 24L80 14.2v-1.4l10 10 10-10v1.4L90.2 24h-.4zm-4 0L80 18.2v-1.4l7.2 7.2h-1.4zm8.4 0l5.8-5.8v-1.4L92.8 24h1.4zm-4.4-12l.2.2.2-.2h-.4zm-4 0l4.2 4.2 4.2-4.2h-1.4L90 14.8 87.2 12h-1.4z"/><path d="M109.8 24l-9.8-9.8v-1.4l10 10 10-10v1.4l-9.8 9.8h-.4zm-4 0l-5.8-5.8v-1.4l7.2 7.2h-1.4zm8.4 0l5.8-5.8v-1.4l-7.2 7.2h1.4zm-4.4-12l.2.2.2-.2h-.4zm-4 0l4.2 4.2 4.2-4.2h-1.4l-2.8 2.8-2.8-2.8h-1.4zM89.8 24L80 14.2v-1.4l10 10 10-10v1.4L90.2 24h-.4zm-4 0L80 18.2v-1.4l7.2 7.2h-1.4zm8.4 0l5.8-5.8v-1.4L92.8 24h1.4zm-4.4-12l.2.2.2-.2h-.4zm-4 0l4.2 4.2 4.2-4.2h-1.4L90 14.8 87.2 12h-1.4z"/><path d="M109.8 24l-9.8-9.8v-1.4l10 10 10-10v1.4l-9.8 9.8h-.4zm-4 0l-5.8-5.8v-1.4l7.2 7.2h-1.4zm8.4 0l5.8-5.8v-1.4l-7.2 7.2h1.4zm-4.4-12l.2.2.2-.2h-.4zm-4 0l4.2 4.2 4.2-4.2h-1.4l-2.8 2.8-2.8-2.8h-1.4zM89.8 24L80 14.2v-1.4l10 10 10-10v1.4L90.2 24h-.4zm-4 0L80 18.2v-1.4l7.2 7.2h-1.4zm8.4 0l5.8-5.8v-1.4L92.8 24h1.4zm-4.4-12l.2.2.2-.2h-.4zm-4 0l4.2 4.2 4.2-4.2h-1.4L90 14.8 87.2 12h-1.4z"/><path d="M109.8 24l-9.8-9.8v-1.4l10 10 10-10v1.4l-9.8 9.8h-.4zm-4 0l-5.8-5.8v-1.4l7.2 7.2h-1.4zm8.4 0l5.8-5.8v-1.4l-7.2 7.2h1.4zm-4.4-12l.2.2.2-.2h-.4zm-4 0l4.2 4.2 4.2-4.2h-1.4l-2.8 2.8-2.8-2.8h-1.4zM89.8 24L80 14.2v-1.4l10 10 10-10v1.4L90.2 24h-.4zm-4 0L80 18.2v-1.4l7.2 7.2h-1.4zm8.4 0l5.8-5.8v-1.4L92.8 24h1.4zm-4.4-12l.2.2.2-.2h-.4zm-4 0l4.2 4.2 4.2-4.2h-1.4L90 14.8 87.2 12h-1.4z"/><path d="M109.8 24l-9.8-9.8v-1.4l10 10 10-10v1.4l-9.8 9.8h-.4zm-4 0l-5.8-5.8v-1.4l7.2 7.2h-1.4zm8.4 0l5.8-5.8v-1.4l-7.2 7.2h1.4zm-4.4-12l.2.2.2-.2h-.4zm-4 0l4.2 4.2 4.2-4.2h-1.4l-2.8 2.8-2.8-2.8h-1.4zM49.8 36L40 26.2v-1.4l10 10 10-10v1.4L50.2 36h-.4zm-4 0L40 30.2v-1.4l7.2 7.2h-1.4zm8.4 0l5.8-5.8v-1.4L52.8 36h1.4zm-4.4-12l.2.2.2-.2h-.4zm-4 0l4.2 4.2 4.2-4.2h-1.4L50 26.8 47.2 24h-1.4zM69.8 36L60 26.2v-1.4l10 10 10-10v1.4L70.2 36h-.4zm-4 0L60 30.2v-1.4l7.2 7.2h-1.4zm8.4 0l5.8-5.8v-1.4L72.8 36h1.4zm-4.4-12l.2.2.2-.2h-.4zm-4 0l4.2 4.2 4.2-4.2h-1.4L70 26.8 67.2 24h-1.4z"/><path d="M49.8 36L40 26.2v-1.4l10 10 10-10v1.4L50.2 36h-.4zm-4 0L40 30.2v-1.4l7.2 7.2h-1.4zm8.4 0l5.8-5.8v-1.4L52.8 36h1.4zm-4.4-12l.2.2.2-.2h-.4zm-4 0l4.2 4.2 4.2-4.2h-1.4L50 26.8 47.2 24h-1.4zM69.8 36L60 26.2v-1.4l10 10 10-10v1.4L70.2 36h-.4zm-4 0L60 30.2v-1.4l7.2 7.2h-1.4zm8.4 0l5.8-5.8v-1.4L72.8 36h1.4zm-4.4-12l.2.2.2-.2h-.4zm-4 0l4.2 4.2 4.2-4.2h-1.4L70 26.8 67.2 24h-1.4z"/><path d="M49.8 36L40 26.2v-1.4l10 10 10-10v1.4L50.2 36h-.4zm-4 0L40 30.2v-1.4l7.2 7.2h-1.4zm8.4 0l5.8-5.8v-1.4L52.8 36h1.4zm-4.4-12l.2.2.2-.2h-.4zm-4 0l4.2 4.2 4.2-4.2h-1.4L50 26.8 47.2 24h-1.4zM69.8 36L60 26.2v-1.4l10 10 10-10v1.4L70.2 36h-.4zm-4 0L60 30.2v-1.4l7.2 7.2h-1.4zm8.4 0l5.8-5.8v-1.4L72.8 36h1.4zm-4.4-12l.2.2.2-.2h-.4zm-4 0l4.2 4.2 4.2-4.2h-1.4L70 26.8 67.2 24h-1.4z"/><path d="M49.8 36L40 26.2v-1.4l10 10 10-10v1.4L50.2 36h-.4zm-4 0L40 30.2v-1.4l7.2 7.2h-1.4zm8.4 0l5.8-5.8v-1.4L52.8 36h1.4zm-4.4-12l.2.2.2-.2h-.4zm-4 0l4.2 4.2 4.2-4.2h-1.4L50 26.8 47.2 24h-1.4zM69.8 36L60 26.2v-1.4l10 10 10-10v1.4L70.2 36h-.4zm-4 0L60 30.2v-1.4l7.2 7.2h-1.4zm8.4 0l5.8-5.8v-1.4L72.8 36h1.4zm-4.4-12l.2.2.2-.2h-.4zm-4 0l4.2 4.2 4.2-4.2h-1.4L70 26.8 67.2 24h-1.4z"/><path d="M49.8 36L40 26.2v-1.4l10 10 10-10v1.4L50.2 36h-.4zm-4 0L40 30.2v-1.4l7.2 7.2h-1.4zm8.4 0l5.8-5.8v-1.4L52.8 36h1.4zm-4.4-12l.2.2.2-.2h-.4zm-4 0l4.2 4.2 4.2-4.2h-1.4L50 26.8 47.2 24h-1.4zM69.8 36L60 26.2v-1.4l10 10 10-10v1.4L70.2 36h-.4zm-4 0L60 30.2v-1.4l7.2 7.2h-1.4zm8.4 0l5.8-5.8v-1.4L72.8 36h1.4zm-4.4-12l.2.2.2-.2h-.4zm-4 0l4.2 4.2 4.2-4.2h-1.4L70 26.8 67.2 24h-1.4z"/><path d="M49.8 36L40 26.2v-1.4l10 10 10-10v1.4L50.2 36h-.4zm-4 0L40 30.2v-1.4l7.2 7.2h-1.4zm8.4 0l5.8-5.8v-1.4L52.8 36h1.4zm-4.4-12l.2.2.2-.2h-.4zm-4 0l4.2 4.2 4.2-4.2h-1.4L50 26.8 47.2 24h-1.4zM69.8 36L60 26.2v-1.4l10 10 10-10v1.4L70.2 36h-.4zm-4 0L60 30.2v-1.4l7.2 7.2h-1.4zm8.4 0l5.8-5.8v-1.4L72.8 36h1.4zm-4.4-12l.2.2.2-.2h-.4zm-4 0l4.2 4.2 4.2-4.2h-1.4L70 26.8 67.2 24h-1.4z"/><path d="M49.8 36L40 26.2v-1.4l10 10 10-10v1.4L50.2 36h-.4zm-4 0L40 30.2v-1.4l7.2 7.2h-1.4zm8.4 0l5.8-5.8v-1.4L52.8 36h1.4zm-4.4-12l.2.2.2-.2h-.4zm-4 0l4.2 4.2 4.2-4.2h-1.4L50 26.8 47.2 24h-1.4zM69.8 36L60 26.2v-1.4l10 10 10-10v1.4L70.2 36h-.4zm-4 0L60 30.2v-1.4l7.2 7.2h-1.4zm8.4 0l5.8-5.8v-1.4L72.8 36h1.4zm-4.4-12l.2.2.2-.2h-.4zm-4 0l4.2 4.2 4.2-4.2h-1.4L70 26.8 67.2 24h-1.4z"/><path d="M49.8 36L40 26.2v-1.4l10 10 10-10v1.4L50.2 36h-.4zm-4 0L40 30.2v-1.4l7.2 7.2h-1.4zm8.4 0l5.8-5.8v-1.4L52.8 36h1.4zm-4.4-12l.2.2.2-.2h-.4zm-4 0l4.2 4.2 4.2-4.2h-1.4L50 26.8 47.2 24h-1.4zM69.8 36L60 26.2v-1.4l10 10 10-10v1.4L70.2 36h-.4zm-4 0L60 30.2v-1.4l7.2 7.2h-1.4zm8.4 0l5.8-5.8v-1.4L72.8 36h1.4zm-4.4-12l.2.2.2-.2h-.4zm-4 0l4.2 4.2 4.2-4.2h-1.4L70 26.8 67.2 24h-1.4z"/><path d="M49.8 36L40 26.2v-1.4l10 10 10-10v1.4L50.2 36h-.4zm-4 0L40 30.2v-1.4l7.2 7.2h-1.4zm8.4 0l5.8-5.8v-1.4L52.8 36h1.4zm-4.4-12l.2.2.2-.2h-.4zm-4 0l4.2 4.2 4.2-4.2h-1.4L50 26.8 47.2 24h-1.4zM69.8 36L60 26.2v-1.4l10 10 10-10v1.4L70.2 36h-.4zm-4 0L60 30.2v-1.4l7.2 7.2h-1.4zm8.4 0l5.8-5.8v-1.4L72.8 36h1.4zm-4.4-12l.2.2.2-.2h-.4zm-4 0l4.2 4.2 4.2-4.2h-1.4L70 26.8 67.2 24h-1.4z"/><path d="M49.8 36L40 26.2v-1.4l10 10 10-10v1.4L50.2 36h-.4zm-4 0L40 30.2v-1.4l7.2 7.2h-1.4zm8.4 0l5.8-5.8v-1.4L52.8 36h1.4zm-4.4-12l.2.2.2-.2h-.4zm-4 0l4.2 4.2 4.2-4.2h-1.4L50 26.8 47.2 24h-1.4zM69.8 36L60 26.2v-1.4l10 10 10-10v1.4L70.2 36h-.4zm-4 0L60 30.2v-1.4l7.2 7.2h-1.4zm8.4 0l5.8-5.8v-1.4L72.8 36h1.4zm-4.4-12l.2.2.2-.2h-.4zm-4 0l4.2 4.2 4.2-4.2h-1.4L70 26.8 67.2 24h-1.4zM9.8 36L0 26.2v-1.4l10 10 10-10v1.4L10.2 36h-.4zm-4 0L0 30.2v-1.4L7.2 36H5.8zm8.4 0l5.8-5.8v-1.4L12.8 36h1.4zM9.8 24l.2.2.2-.2h-.4zm-4 0l4.2 4.2 4.2-4.2h-1.4L10 26.8 7.2 24H5.8zM29.8 36L20 26.2v-1.4l10 10 10-10v1.4L30.2 36h-.4zm-4 0L20 30.2v-1.4l7.2 7.2h-1.4zm8.4 0l5.8-5.8v-1.4L32.8 36h1.4zm-4.4-12l.2.2.2-.2h-.4zm-4 0l4.2 4.2 4.2-4.2h-1.4L30 26.8 27.2 24h-1.4z"/><path d="M9.8 36L0 26.2v-1.4l10 10 10-10v1.4L10.2 36h-.4zm-4 0L0 30.2v-1.4L7.2 36H5.8zm8.4 0l5.8-5.8v-1.4L12.8 36h1.4zM9.8 24l.2.2.2-.2h-.4zm-4 0l4.2 4.2 4.2-4.2h-1.4L10 26.8 7.2 24H5.8zM29.8 36L20 26.2v-1.4l10 10 10-10v1.4L30.2 36h-.4zm-4 0L20 30.2v-1.4l7.2 7.2h-1.4zm8.4 0l5.8-5.8v-1.4L32.8 36h1.4zm-4.4-12l.2.2.2-.2h-.4zm-4 0l4.2 4.2 4.2-4.2h-1.4L30 26.8 27.2 24h-1.4z"/><path d="M9.8 36L0 26.2v-1.4l10 10 10-10v1.4L10.2 36h-.4zm-4 0L0 30.2v-1.4L7.2 36H5.8zm8.4 0l5.8-5.8v-1.4L12.8 36h1.4zM9.8 24l.2.2.2-.2h-.4zm-4 0l4.2 4.2 4.2-4.2h-1.4L10 26.8 7.2 24H5.8zM29.8 36L20 26.2v-1.4l10 10 10-10v1.4L30.2 36h-.4zm-4 0L20 30.2v-1.4l7.2 7.2h-1.4zm8.4 0l5.8-5.8v-1.4L32.8 36h1.4zm-4.4-12l.2.2.2-.2h-.4zm-4 0l4.2 4.2 4.2-4.2h-1.4L30 26.8 27.2 24h-1.4z"/><path d="M9.8 36L0 26.2v-1.4l10 10 10-10v1.4L10.2 36h-.4zm-4 0L0 30.2v-1.4L7.2 36H5.8zm8.4 0l5.8-5.8v-1.4L12.8 36h1.4zM9.8 24l.2.2.2-.2h-.4zm-4 0l4.2 4.2 4.2-4.2h-1.4L10 26.8 7.2 24H5.8zM29.8 36L20 26.2v-1.4l10 10 10-10v1.4L30.2 36h-.4zm-4 0L20 30.2v-1.4l7.2 7.2h-1.4zm8.4 0l5.8-5.8v-1.4L32.8 36h1.4zm-4.4-12l.2.2.2-.2h-.4zm-4 0l4.2 4.2 4.2-4.2h-1.4L30 26.8 27.2 24h-1.4z"/><path d="M9.8 36L0 26.2v-1.4l10 10 10-10v1.4L10.2 36h-.4zm-4 0L0 30.2v-1.4L7.2 36H5.8zm8.4 0l5.8-5.8v-1.4L12.8 36h1.4zM9.8 24l.2.2.2-.2h-.4zm-4 0l4.2 4.2 4.2-4.2h-1.4L10 26.8 7.2 24H5.8zM29.8 36L20 26.2v-1.4l10 10 10-10v1.4L30.2 36h-.4zm-4 0L20 30.2v-1.4l7.2 7.2h-1.4zm8.4 0l5.8-5.8v-1.4L32.8 36h1.4zm-4.4-12l.2.2.2-.2h-.4zm-4 0l4.2 4.2 4.2-4.2h-1.4L30 26.8 27.2 24h-1.4z"/><path d="M9.8 36L0 26.2v-1.4l10 10 10-10v1.4L10.2 36h-.4zm-4 0L0 30.2v-1.4L7.2 36H5.8zm8.4 0l5.8-5.8v-1.4L12.8 36h1.4zM9.8 24l.2.2.2-.2h-.4zm-4 0l4.2 4.2 4.2-4.2h-1.4L10 26.8 7.2 24H5.8zM29.8 36L20 26.2v-1.4l10 10 10-10v1.4L30.2 36h-.4zm-4 0L20 30.2v-1.4l7.2 7.2h-1.4zm8.4 0l5.8-5.8v-1.4L32.8 36h1.4zm-4.4-12l.2.2.2-.2h-.4zm-4 0l4.2 4.2 4.2-4.2h-1.4L30 26.8 27.2 24h-1.4z"/><path d="M9.8 36L0 26.2v-1.4l10 10 10-10v1.4L10.2 36h-.4zm-4 0L0 30.2v-1.4L7.2 36H5.8zm8.4 0l5.8-5.8v-1.4L12.8 36h1.4zM9.8 24l.2.2.2-.2h-.4zm-4 0l4.2 4.2 4.2-4.2h-1.4L10 26.8 7.2 24H5.8zM29.8 36L20 26.2v-1.4l10 10 10-10v1.4L30.2 36h-.4zm-4 0L20 30.2v-1.4l7.2 7.2h-1.4zm8.4 0l5.8-5.8v-1.4L32.8 36h1.4zm-4.4-12l.2.2.2-.2h-.4zm-4 0l4.2 4.2 4.2-4.2h-1.4L30 26.8 27.2 24h-1.4z"/><path d="M9.8 36L0 26.2v-1.4l10 10 10-10v1.4L10.2 36h-.4zm-4 0L0 30.2v-1.4L7.2 36H5.8zm8.4 0l5.8-5.8v-1.4L12.8 36h1.4zM9.8 24l.2.2.2-.2h-.4zm-4 0l4.2 4.2 4.2-4.2h-1.4L10 26.8 7.2 24H5.8zM29.8 36L20 26.2v-1.4l10 10 10-10v1.4L30.2 36h-.4zm-4 0L20 30.2v-1.4l7.2 7.2h-1.4zm8.4 0l5.8-5.8v-1.4L32.8 36h1.4zm-4.4-12l.2.2.2-.2h-.4zm-4 0l4.2 4.2 4.2-4.2h-1.4L30 26.8 27.2 24h-1.4z"/><path d="M9.8 36L0 26.2v-1.4l10 10 10-10v1.4L10.2 36h-.4zm-4 0L0 30.2v-1.4L7.2 36H5.8zm8.4 0l5.8-5.8v-1.4L12.8 36h1.4zM9.8 24l.2.2.2-.2h-.4zm-4 0l4.2 4.2 4.2-4.2h-1.4L10 26.8 7.2 24H5.8zM29.8 36L20 26.2v-1.4l10 10 10-10v1.4L30.2 36h-.4zm-4 0L20 30.2v-1.4l7.2 7.2h-1.4zm8.4 0l5.8-5.8v-1.4L32.8 36h1.4zm-4.4-12l.2.2.2-.2h-.4zm-4 0l4.2 4.2 4.2-4.2h-1.4L30 26.8 27.2 24h-1.4z"/><path d="M9.8 36L0 26.2v-1.4l10 10 10-10v1.4L10.2 36h-.4zm-4 0L0 30.2v-1.4L7.2 36H5.8zm8.4 0l5.8-5.8v-1.4L12.8 36h1.4zM9.8 24l.2.2.2-.2h-.4zm-4 0l4.2 4.2 4.2-4.2h-1.4L10 26.8 7.2 24H5.8zM29.8 36L20 26.2v-1.4l10 10 10-10v1.4L30.2 36h-.4zm-4 0L20 30.2v-1.4l7.2 7.2h-1.4zm8.4 0l5.8-5.8v-1.4L32.8 36h1.4zm-4.4-12l.2.2.2-.2h-.4zm-4 0l4.2 4.2 4.2-4.2h-1.4L30 26.8 27.2 24h-1.4zM9.8 48L0 38.2v-1.4l10 10 10-10v1.4L10.2 48h-.4zm-4 0L0 42.2v-1.4L7.2 48H5.8zm8.4 0l5.8-5.8v-1.4L12.8 48h1.4zM9.8 36l.2.2.2-.2h-.4zm-4 0l4.2 4.2 4.2-4.2h-1.4L10 38.8 7.2 36H5.8zM29.8 48L20 38.2v-1.4l10 10 10-10v1.4L30.2 48h-.4zm-4 0L20 42.2v-1.4l7.2 7.2h-1.4zm8.4 0l5.8-5.8v-1.4L32.8 48h1.4zm-4.4-12l.2.2.2-.2h-.4zm-4 0l4.2 4.2 4.2-4.2h-1.4L30 38.8 27.2 36h-1.4z"/><path d="M9.8 48L0 38.2v-1.4l10 10 10-10v1.4L10.2 48h-.4zm-4 0L0 42.2v-1.4L7.2 48H5.8zm8.4 0l5.8-5.8v-1.4L12.8 48h1.4zM9.8 36l.2.2.2-.2h-.4zm-4 0l4.2 4.2 4.2-4.2h-1.4L10 38.8 7.2 36H5.8zM29.8 48L20 38.2v-1.4l10 10 10-10v1.4L30.2 48h-.4zm-4 0L20 42.2v-1.4l7.2 7.2h-1.4zm8.4 0l5.8-5.8v-1.4L32.8 48h1.4zm-4.4-12l.2.2.2-.2h-.4zm-4 0l4.2 4.2 4.2-4.2h-1.4L30 38.8 27.2 36h-1.4z"/><path d="M9.8 48L0 38.2v-1.4l10 10 10-10v1.4L10.2 48h-.4zm-4 0L0 42.2v-1.4L7.2 48H5.8zm8.4 0l5.8-5.8v-1.4L12.8 48h1.4zM9.8 36l.2.2.2-.2h-.4zm-4 0l4.2 4.2 4.2-4.2h-1.4L10 38.8 7.2 36H5.8zM29.8 48L20 38.2v-1.4l10 10 10-10v1.4L30.2 48h-.4zm-4 0L20 42.2v-1.4l7.2 7.2h-1.4zm8.4 0l5.8-5.8v-1.4L32.8 48h1.4zm-4.4-12l.2.2.2-.2h-.4zm-4 0l4.2 4.2 4.2-4.2h-1.4L30 38.8 27.2 36h-1.4z"/><path d="M9.8 48L0 38.2v-1.4l10 10 10-10v1.4L10.2 48h-.4zm-4 0L0 42.2v-1.4L7.2 48H5.8zm8.4 0l5.8-5.8v-1.4L12.8 48h1.4zM9.8 36l.2.2.2-.2h-.4zm-4 0l4.2 4.2 4.2-4.2h-1.4L10 38.8 7.2 36H5.8zM29.8 48L20 38.2v-1.4l10 10 10-10v1.4L30.2 48h-.4zm-4 0L20 42.2v-1.4l7.2 7.2h-1.4zm8.4 0l5.8-5.8v-1.4L32.8 48h1.4zm-4.4-12l.2.2.2-.2h-.4zm-4 0l4.2 4.2 4.2-4.2h-1.4L30 38.8 27.2 36h-1.4z"/><path d="M9.8 48L0 38.2v-1.4l10 10 10-10v1.4L10.2 48h-.4zm-4 0L0 42.2v-1.4L7.2 48H5.8zm8.4 0l5.8-5.8v-1.4L12.8 48h1.4zM9.8 36l.2.2.2-.2h-.4zm-4 0l4.2 4.2 4.2-4.2h-1.4L10 38.8 7.2 36H5.8zM29.8 48L20 38.2v-1.4l10 10 10-10v1.4L30.2 48h-.4zm-4 0L20 42.2v-1.4l7.2 7.2h-1.4zm8.4 0l5.8-5.8v-1.4L32.8 48h1.4zm-4.4-12l.2.2.2-.2h-.4zm-4 0l4.2 4.2 4.2-4.2h-1.4L30 38.8 27.2 36h-1.4z"/><path d="M9.8 48L0 38.2v-1.4l10 10 10-10v1.4L10.2 48h-.4zm-4 0L0 42.2v-1.4L7.2 48H5.8zm8.4 0l5.8-5.8v-1.4L12.8 48h1.4zM9.8 36l.2.2.2-.2h-.4zm-4 0l4.2 4.2 4.2-4.2h-1.4L10 38.8 7.2 36H5.8zM29.8 48L20 38.2v-1.4l10 10 10-10v1.4L30.2 48h-.4zm-4 0L20 42.2v-1.4l7.2 7.2h-1.4zm8.4 0l5.8-5.8v-1.4L32.8 48h1.4zm-4.4-12l.2.2.2-.2h-.4zm-4 0l4.2 4.2 4.2-4.2h-1.4L30 38.8 27.2 36h-1.4z"/><path d="M9.8 48L0 38.2v-1.4l10 10 10-10v1.4L10.2 48h-.4zm-4 0L0 42.2v-1.4L7.2 48H5.8zm8.4 0l5.8-5.8v-1.4L12.8 48h1.4zM9.8 36l.2.2.2-.2h-.4zm-4 0l4.2 4.2 4.2-4.2h-1.4L10 38.8 7.2 36H5.8zM29.8 48L20 38.2v-1.4l10 10 10-10v1.4L30.2 48h-.4zm-4 0L20 42.2v-1.4l7.2 7.2h-1.4zm8.4 0l5.8-5.8v-1.4L32.8 48h1.4zm-4.4-12l.2.2.2-.2h-.4zm-4 0l4.2 4.2 4.2-4.2h-1.4L30 38.8 27.2 36h-1.4z"/><path d="M9.8 48L0 38.2v-1.4l10 10 10-10v1.4L10.2 48h-.4zm-4 0L0 42.2v-1.4L7.2 48H5.8zm8.4 0l5.8-5.8v-1.4L12.8 48h1.4zM9.8 36l.2.2.2-.2h-.4zm-4 0l4.2 4.2 4.2-4.2h-1.4L10 38.8 7.2 36H5.8zM29.8 48L20 38.2v-1.4l10 10 10-10v1.4L30.2 48h-.4zm-4 0L20 42.2v-1.4l7.2 7.2h-1.4zm8.4 0l5.8-5.8v-1.4L32.8 48h1.4zm-4.4-12l.2.2.2-.2h-.4zm-4 0l4.2 4.2 4.2-4.2h-1.4L30 38.8 27.2 36h-1.4z"/><path d="M9.8 48L0 38.2v-1.4l10 10 10-10v1.4L10.2 48h-.4zm-4 0L0 42.2v-1.4L7.2 48H5.8zm8.4 0l5.8-5.8v-1.4L12.8 48h1.4zM9.8 36l.2.2.2-.2h-.4zm-4 0l4.2 4.2 4.2-4.2h-1.4L10 38.8 7.2 36H5.8zM29.8 48L20 38.2v-1.4l10 10 10-10v1.4L30.2 48h-.4zm-4 0L20 42.2v-1.4l7.2 7.2h-1.4zm8.4 0l5.8-5.8v-1.4L32.8 48h1.4zm-4.4-12l.2.2.2-.2h-.4zm-4 0l4.2 4.2 4.2-4.2h-1.4L30 38.8 27.2 36h-1.4z"/><path d="M9.8 48L0 38.2v-1.4l10 10 10-10v1.4L10.2 48h-.4zm-4 0L0 42.2v-1.4L7.2 48H5.8zm8.4 0l5.8-5.8v-1.4L12.8 48h1.4zM9.8 36l.2.2.2-.2h-.4zm-4 0l4.2 4.2 4.2-4.2h-1.4L10 38.8 7.2 36H5.8zM29.8 48L20 38.2v-1.4l10 10 10-10v1.4L30.2 48h-.4zm-4 0L20 42.2v-1.4l7.2 7.2h-1.4zm8.4 0l5.8-5.8v-1.4L32.8 48h1.4zm-4.4-12l.2.2.2-.2h-.4zm-4 0l4.2 4.2 4.2-4.2h-1.4L30 38.8 27.2 36h-1.4zM9.8 60L0 50.2v-1.4l10 10 10-10v1.4L10.2 60h-.4zm-4 0L0 54.2v-1.4L7.2 60H5.8zm8.4 0l5.8-5.8v-1.4L12.8 60h1.4zM9.8 48l.2.2.2-.2h-.4zm-4 0l4.2 4.2 4.2-4.2h-1.4L10 50.8 7.2 48H5.8z"/><path d="M29.8 60L20 50.2v-1.4l10 10 10-10v1.4L30.2 60h-.4zm-4 0L20 54.2v-1.4l7.2 7.2h-1.4zm8.4 0l5.8-5.8v-1.4L32.8 60h1.4zm-4.4-12l.2.2.2-.2h-.4zm-4 0l4.2 4.2 4.2-4.2h-1.4L30 50.8 27.2 48h-1.4zM9.8 60L0 50.2v-1.4l10 10 10-10v1.4L10.2 60h-.4zm-4 0L0 54.2v-1.4L7.2 60H5.8zm8.4 0l5.8-5.8v-1.4L12.8 60h1.4zM9.8 48l.2.2.2-.2h-.4zm-4 0l4.2 4.2 4.2-4.2h-1.4L10 50.8 7.2 48H5.8z"/><path d="M29.8 60L20 50.2v-1.4l10 10 10-10v1.4L30.2 60h-.4zm-4 0L20 54.2v-1.4l7.2 7.2h-1.4zm8.4 0l5.8-5.8v-1.4L32.8 60h1.4zm-4.4-12l.2.2.2-.2h-.4zm-4 0l4.2 4.2 4.2-4.2h-1.4L30 50.8 27.2 48h-1.4zM9.8 60L0 50.2v-1.4l10 10 10-10v1.4L10.2 60h-.4zm-4 0L0 54.2v-1.4L7.2 60H5.8zm8.4 0l5.8-5.8v-1.4L12.8 60h1.4zM9.8 48l.2.2.2-.2h-.4zm-4 0l4.2 4.2 4.2-4.2h-1.4L10 50.8 7.2 48H5.8z"/><path d="M29.8 60L20 50.2v-1.4l10 10 10-10v1.4L30.2 60h-.4zm-4 0L20 54.2v-1.4l7.2 7.2h-1.4zm8.4 0l5.8-5.8v-1.4L32.8 60h1.4zm-4.4-12l.2.2.2-.2h-.4zm-4 0l4.2 4.2 4.2-4.2h-1.4L30 50.8 27.2 48h-1.4zM9.8 60L0 50.2v-1.4l10 10 10-10v1.4L10.2 60h-.4zm-4 0L0 54.2v-1.4L7.2 60H5.8zm8.4 0l5.8-5.8v-1.4L12.8 60h1.4zM9.8 48l.2.2.2-.2h-.4zm-4 0l4.2 4.2 4.2-4.2h-1.4L10 50.8 7.2 48H5.8z"/><path d="M29.8 60L20 50.2v-1.4l10 10 10-10v1.4L30.2 60h-.4zm-4 0L20 54.2v-1.4l7.2 7.2h-1.4zm8.4 0l5.8-5.8v-1.4L32.8 60h1.4zm-4.4-12l.2.2.2-.2h-.4zm-4 0l4.2 4.2 4.2-4.2h-1.4L30 50.8 27.2 48h-1.4zM9.8 60L0 50.2v-1.4l10 10 10-10v1.4L10.2 60h-.4zm-4 0L0 54.2v-1.4L7.2 60H5.8zm8.4 0l5.8-5.8v-1.4L12.8 60h1.4zM9.8 48l.2.2.2-.2h-.4zm-4 0l4.2 4.2 4.2-4.2h-1.4L10 50.8 7.2 48H5.8z"/><path d="M29.8 60L20 50.2v-1.4l10 10 10-10v1.4L30.2 60h-.4zm-4 0L20 54.2v-1.4l7.2 7.2h-1.4zm8.4 0l5.8-5.8v-1.4L32.8 60h1.4zm-4.4-12l.2.2.2-.2h-.4zm-4 0l4.2 4.2 4.2-4.2h-1.4L30 50.8 27.2 48h-1.4zM9.8 60L0 50.2v-1.4l10 10 10-10v1.4L10.2 60h-.4zm-4 0L0 54.2v-1.4L7.2 60H5.8zm8.4 0l5.8-5.8v-1.4L12.8 60h1.4zM9.8 48l.2.2.2-.2h-.4zm-4 0l4.2 4.2 4.2-4.2h-1.4L10 50.8 7.2 48H5.8z"/><path d="M29.8 60L20 50.2v-1.4l10 10 10-10v1.4L30.2 60h-.4zm-4 0L20 54.2v-1.4l7.2 7.2h-1.4zm8.4 0l5.8-5.8v-1.4L32.8 60h1.4zm-4.4-12l.2.2.2-.2h-.4zm-4 0l4.2 4.2 4.2-4.2h-1.4L30 50.8 27.2 48h-1.4zM9.8 60L0 50.2v-1.4l10 10 10-10v1.4L10.2 60h-.4zm-4 0L0 54.2v-1.4L7.2 60H5.8zm8.4 0l5.8-5.8v-1.4L12.8 60h1.4zM9.8 48l.2.2.2-.2h-.4zm-4 0l4.2 4.2 4.2-4.2h-1.4L10 50.8 7.2 48H5.8z"/><path d="M29.8 60L20 50.2v-1.4l10 10 10-10v1.4L30.2 60h-.4zm-4 0L20 54.2v-1.4l7.2 7.2h-1.4zm8.4 0l5.8-5.8v-1.4L32.8 60h1.4zm-4.4-12l.2.2.2-.2h-.4zm-4 0l4.2 4.2 4.2-4.2h-1.4L30 50.8 27.2 48h-1.4zM9.8 60L0 50.2v-1.4l10 10 10-10v1.4L10.2 60h-.4zm-4 0L0 54.2v-1.4L7.2 60H5.8zm8.4 0l5.8-5.8v-1.4L12.8 60h1.4zM9.8 48l.2.2.2-.2h-.4zm-4 0l4.2 4.2 4.2-4.2h-1.4L10 50.8 7.2 48H5.8z"/><path d="M29.8 60L20 50.2v-1.4l10 10 10-10v1.4L30.2 60h-.4zm-4 0L20 54.2v-1.4l7.2 7.2h-1.4zm8.4 0l5.8-5.8v-1.4L32.8 60h1.4zm-4.4-12l.2.2.2-.2h-.4zm-4 0l4.2 4.2 4.2-4.2h-1.4L30 50.8 27.2 48h-1.4zM9.8 60L0 50.2v-1.4l10 10 10-10v1.4L10.2 60h-.4zm-4 0L0 54.2v-1.4L7.2 60H5.8zm8.4 0l5.8-5.8v-1.4L12.8 60h1.4zM9.8 48l.2.2.2-.2h-.4zm-4 0l4.2 4.2 4.2-4.2h-1.4L10 50.8 7.2 48H5.8z"/><path d="M29.8 60L20 50.2v-1.4l10 10 10-10v1.4L30.2 60h-.4zm-4 0L20 54.2v-1.4l7.2 7.2h-1.4zm8.4 0l5.8-5.8v-1.4L32.8 60h1.4zm-4.4-12l.2.2.2-.2h-.4zm-4 0l4.2 4.2 4.2-4.2h-1.4L30 50.8 27.2 48h-1.4zM9.8 60L0 50.2v-1.4l10 10 10-10v1.4L10.2 60h-.4zm-4 0L0 54.2v-1.4L7.2 60H5.8zm8.4 0l5.8-5.8v-1.4L12.8 60h1.4zM9.8 48l.2.2.2-.2h-.4zm-4 0l4.2 4.2 4.2-4.2h-1.4L10 50.8 7.2 48H5.8z"/><path d="M29.8 60L20 50.2v-1.4l10 10 10-10v1.4L30.2 60h-.4zm-4 0L20 54.2v-1.4l7.2 7.2h-1.4zm8.4 0l5.8-5.8v-1.4L32.8 60h1.4zm-4.4-12l.2.2.2-.2h-.4zm-4 0l4.2 4.2 4.2-4.2h-1.4L30 50.8 27.2 48h-1.4zM89.8 36L80 26.2v-1.4l10 10 10-10v1.4L90.2 36h-.4zm-4 0L80 30.2v-1.4l7.2 7.2h-1.4zm8.4 0l5.8-5.8v-1.4L92.8 36h1.4zm-4.4-12l.2.2.2-.2h-.4zm-4 0l4.2 4.2 4.2-4.2h-1.4L90 26.8 87.2 24h-1.4zM109.8 36l-9.8-9.8v-1.4l10 10 10-10v1.4l-9.8 9.8h-.4zm-4 0l-5.8-5.8v-1.4l7.2 7.2h-1.4zm8.4 0l5.8-5.8v-1.4l-7.2 7.2h1.4zm-4.4-12l.2.2.2-.2h-.4zm-4 0l4.2 4.2 4.2-4.2h-1.4l-2.8 2.8-2.8-2.8h-1.4z"/><path d="M89.8 36L80 26.2v-1.4l10 10 10-10v1.4L90.2 36h-.4zm-4 0L80 30.2v-1.4l7.2 7.2h-1.4zm8.4 0l5.8-5.8v-1.4L92.8 36h1.4zm-4.4-12l.2.2.2-.2h-.4zm-4 0l4.2 4.2 4.2-4.2h-1.4L90 26.8 87.2 24h-1.4zM109.8 36l-9.8-9.8v-1.4l10 10 10-10v1.4l-9.8 9.8h-.4zm-4 0l-5.8-5.8v-1.4l7.2 7.2h-1.4zm8.4 0l5.8-5.8v-1.4l-7.2 7.2h1.4zm-4.4-12l.2.2.2-.2h-.4zm-4 0l4.2 4.2 4.2-4.2h-1.4l-2.8 2.8-2.8-2.8h-1.4z"/><path d="M89.8 36L80 26.2v-1.4l10 10 10-10v1.4L90.2 36h-.4zm-4 0L80 30.2v-1.4l7.2 7.2h-1.4zm8.4 0l5.8-5.8v-1.4L92.8 36h1.4zm-4.4-12l.2.2.2-.2h-.4zm-4 0l4.2 4.2 4.2-4.2h-1.4L90 26.8 87.2 24h-1.4zM109.8 36l-9.8-9.8v-1.4l10 10 10-10v1.4l-9.8 9.8h-.4zm-4 0l-5.8-5.8v-1.4l7.2 7.2h-1.4zm8.4 0l5.8-5.8v-1.4l-7.2 7.2h1.4zm-4.4-12l.2.2.2-.2h-.4zm-4 0l4.2 4.2 4.2-4.2h-1.4l-2.8 2.8-2.8-2.8h-1.4z"/><path d="M89.8 36L80 26.2v-1.4l10 10 10-10v1.4L90.2 36h-.4zm-4 0L80 30.2v-1.4l7.2 7.2h-1.4zm8.4 0l5.8-5.8v-1.4L92.8 36h1.4zm-4.4-12l.2.2.2-.2h-.4zm-4 0l4.2 4.2 4.2-4.2h-1.4L90 26.8 87.2 24h-1.4zM109.8 36l-9.8-9.8v-1.4l10 10 10-10v1.4l-9.8 9.8h-.4zm-4 0l-5.8-5.8v-1.4l7.2 7.2h-1.4zm8.4 0l5.8-5.8v-1.4l-7.2 7.2h1.4zm-4.4-12l.2.2.2-.2h-.4zm-4 0l4.2 4.2 4.2-4.2h-1.4l-2.8 2.8-2.8-2.8h-1.4z"/><path d="M89.8 36L80 26.2v-1.4l10 10 10-10v1.4L90.2 36h-.4zm-4 0L80 30.2v-1.4l7.2 7.2h-1.4zm8.4 0l5.8-5.8v-1.4L92.8 36h1.4zm-4.4-12l.2.2.2-.2h-.4zm-4 0l4.2 4.2 4.2-4.2h-1.4L90 26.8 87.2 24h-1.4zM109.8 36l-9.8-9.8v-1.4l10 10 10-10v1.4l-9.8 9.8h-.4zm-4 0l-5.8-5.8v-1.4l7.2 7.2h-1.4zm8.4 0l5.8-5.8v-1.4l-7.2 7.2h1.4zm-4.4-12l.2.2.2-.2h-.4zm-4 0l4.2 4.2 4.2-4.2h-1.4l-2.8 2.8-2.8-2.8h-1.4z"/><path d="M89.8 36L80 26.2v-1.4l10 10 10-10v1.4L90.2 36h-.4zm-4 0L80 30.2v-1.4l7.2 7.2h-1.4zm8.4 0l5.8-5.8v-1.4L92.8 36h1.4zm-4.4-12l.2.2.2-.2h-.4zm-4 0l4.2 4.2 4.2-4.2h-1.4L90 26.8 87.2 24h-1.4zM109.8 36l-9.8-9.8v-1.4l10 10 10-10v1.4l-9.8 9.8h-.4zm-4 0l-5.8-5.8v-1.4l7.2 7.2h-1.4zm8.4 0l5.8-5.8v-1.4l-7.2 7.2h1.4zm-4.4-12l.2.2.2-.2h-.4zm-4 0l4.2 4.2 4.2-4.2h-1.4l-2.8 2.8-2.8-2.8h-1.4z"/><path d="M89.8 36L80 26.2v-1.4l10 10 10-10v1.4L90.2 36h-.4zm-4 0L80 30.2v-1.4l7.2 7.2h-1.4zm8.4 0l5.8-5.8v-1.4L92.8 36h1.4zm-4.4-12l.2.2.2-.2h-.4zm-4 0l4.2 4.2 4.2-4.2h-1.4L90 26.8 87.2 24h-1.4zM109.8 36l-9.8-9.8v-1.4l10 10 10-10v1.4l-9.8 9.8h-.4zm-4 0l-5.8-5.8v-1.4l7.2 7.2h-1.4zm8.4 0l5.8-5.8v-1.4l-7.2 7.2h1.4zm-4.4-12l.2.2.2-.2h-.4zm-4 0l4.2 4.2 4.2-4.2h-1.4l-2.8 2.8-2.8-2.8h-1.4z"/><path d="M89.8 36L80 26.2v-1.4l10 10 10-10v1.4L90.2 36h-.4zm-4 0L80 30.2v-1.4l7.2 7.2h-1.4zm8.4 0l5.8-5.8v-1.4L92.8 36h1.4zm-4.4-12l.2.2.2-.2h-.4zm-4 0l4.2 4.2 4.2-4.2h-1.4L90 26.8 87.2 24h-1.4zM109.8 36l-9.8-9.8v-1.4l10 10 10-10v1.4l-9.8 9.8h-.4zm-4 0l-5.8-5.8v-1.4l7.2 7.2h-1.4zm8.4 0l5.8-5.8v-1.4l-7.2 7.2h1.4zm-4.4-12l.2.2.2-.2h-.4zm-4 0l4.2 4.2 4.2-4.2h-1.4l-2.8 2.8-2.8-2.8h-1.4z"/><path d="M89.8 36L80 26.2v-1.4l10 10 10-10v1.4L90.2 36h-.4zm-4 0L80 30.2v-1.4l7.2 7.2h-1.4zm8.4 0l5.8-5.8v-1.4L92.8 36h1.4zm-4.4-12l.2.2.2-.2h-.4zm-4 0l4.2 4.2 4.2-4.2h-1.4L90 26.8 87.2 24h-1.4zM109.8 36l-9.8-9.8v-1.4l10 10 10-10v1.4l-9.8 9.8h-.4zm-4 0l-5.8-5.8v-1.4l7.2 7.2h-1.4zm8.4 0l5.8-5.8v-1.4l-7.2 7.2h1.4zm-4.4-12l.2.2.2-.2h-.4zm-4 0l4.2 4.2 4.2-4.2h-1.4l-2.8 2.8-2.8-2.8h-1.4z"/><path d="M89.8 36L80 26.2v-1.4l10 10 10-10v1.4L90.2 36h-.4zm-4 0L80 30.2v-1.4l7.2 7.2h-1.4zm8.4 0l5.8-5.8v-1.4L92.8 36h1.4zm-4.4-12l.2.2.2-.2h-.4zm-4 0l4.2 4.2 4.2-4.2h-1.4L90 26.8 87.2 24h-1.4zM109.8 36l-9.8-9.8v-1.4l10 10 10-10v1.4l-9.8 9.8h-.4zm-4 0l-5.8-5.8v-1.4l7.2 7.2h-1.4zm8.4 0l5.8-5.8v-1.4l-7.2 7.2h1.4zm-4.4-12l.2.2.2-.2h-.4zm-4 0l4.2 4.2 4.2-4.2h-1.4l-2.8 2.8-2.8-2.8h-1.4zM89.8 48L80 38.2v-1.4l10 10 10-10v1.4L90.2 48h-.4zm-4 0L80 42.2v-1.4l7.2 7.2h-1.4zm8.4 0l5.8-5.8v-1.4L92.8 48h1.4zm-4.4-12l.2.2.2-.2h-.4zm-4 0l4.2 4.2 4.2-4.2h-1.4L90 38.8 87.2 36h-1.4zM109.8 48l-9.8-9.8v-1.4l10 10 10-10v1.4l-9.8 9.8h-.4zm-4 0l-5.8-5.8v-1.4l7.2 7.2h-1.4zm8.4 0l5.8-5.8v-1.4l-7.2 7.2h1.4zm-4.4-12l.2.2.2-.2h-.4zm-4 0l4.2 4.2 4.2-4.2h-1.4l-2.8 2.8-2.8-2.8h-1.4z"/><path d="M89.8 48L80 38.2v-1.4l10 10 10-10v1.4L90.2 48h-.4zm-4 0L80 42.2v-1.4l7.2 7.2h-1.4zm8.4 0l5.8-5.8v-1.4L92.8 48h1.4zm-4.4-12l.2.2.2-.2h-.4zm-4 0l4.2 4.2 4.2-4.2h-1.4L90 38.8 87.2 36h-1.4zM109.8 48l-9.8-9.8v-1.4l10 10 10-10v1.4l-9.8 9.8h-.4zm-4 0l-5.8-5.8v-1.4l7.2 7.2h-1.4zm8.4 0l5.8-5.8v-1.4l-7.2 7.2h1.4zm-4.4-12l.2.2.2-.2h-.4zm-4 0l4.2 4.2 4.2-4.2h-1.4l-2.8 2.8-2.8-2.8h-1.4z"/><path d="M89.8 48L80 38.2v-1.4l10 10 10-10v1.4L90.2 48h-.4zm-4 0L80 42.2v-1.4l7.2 7.2h-1.4zm8.4 0l5.8-5.8v-1.4L92.8 48h1.4zm-4.4-12l.2.2.2-.2h-.4zm-4 0l4.2 4.2 4.2-4.2h-1.4L90 38.8 87.2 36h-1.4zM109.8 48l-9.8-9.8v-1.4l10 10 10-10v1.4l-9.8 9.8h-.4zm-4 0l-5.8-5.8v-1.4l7.2 7.2h-1.4zm8.4 0l5.8-5.8v-1.4l-7.2 7.2h1.4zm-4.4-12l.2.2.2-.2h-.4zm-4 0l4.2 4.2 4.2-4.2h-1.4l-2.8 2.8-2.8-2.8h-1.4z"/><path d="M89.8 48L80 38.2v-1.4l10 10 10-10v1.4L90.2 48h-.4zm-4 0L80 42.2v-1.4l7.2 7.2h-1.4zm8.4 0l5.8-5.8v-1.4L92.8 48h1.4zm-4.4-12l.2.2.2-.2h-.4zm-4 0l4.2 4.2 4.2-4.2h-1.4L90 38.8 87.2 36h-1.4zM109.8 48l-9.8-9.8v-1.4l10 10 10-10v1.4l-9.8 9.8h-.4zm-4 0l-5.8-5.8v-1.4l7.2 7.2h-1.4zm8.4 0l5.8-5.8v-1.4l-7.2 7.2h1.4zm-4.4-12l.2.2.2-.2h-.4zm-4 0l4.2 4.2 4.2-4.2h-1.4l-2.8 2.8-2.8-2.8h-1.4z"/><path d="M89.8 48L80 38.2v-1.4l10 10 10-10v1.4L90.2 48h-.4zm-4 0L80 42.2v-1.4l7.2 7.2h-1.4zm8.4 0l5.8-5.8v-1.4L92.8 48h1.4zm-4.4-12l.2.2.2-.2h-.4zm-4 0l4.2 4.2 4.2-4.2h-1.4L90 38.8 87.2 36h-1.4zM109.8 48l-9.8-9.8v-1.4l10 10 10-10v1.4l-9.8 9.8h-.4zm-4 0l-5.8-5.8v-1.4l7.2 7.2h-1.4zm8.4 0l5.8-5.8v-1.4l-7.2 7.2h1.4zm-4.4-12l.2.2.2-.2h-.4zm-4 0l4.2 4.2 4.2-4.2h-1.4l-2.8 2.8-2.8-2.8h-1.4z"/><path d="M89.8 48L80 38.2v-1.4l10 10 10-10v1.4L90.2 48h-.4zm-4 0L80 42.2v-1.4l7.2 7.2h-1.4zm8.4 0l5.8-5.8v-1.4L92.8 48h1.4zm-4.4-12l.2.2.2-.2h-.4zm-4 0l4.2 4.2 4.2-4.2h-1.4L90 38.8 87.2 36h-1.4zM109.8 48l-9.8-9.8v-1.4l10 10 10-10v1.4l-9.8 9.8h-.4zm-4 0l-5.8-5.8v-1.4l7.2 7.2h-1.4zm8.4 0l5.8-5.8v-1.4l-7.2 7.2h1.4zm-4.4-12l.2.2.2-.2h-.4zm-4 0l4.2 4.2 4.2-4.2h-1.4l-2.8 2.8-2.8-2.8h-1.4z"/><path d="M89.8 48L80 38.2v-1.4l10 10 10-10v1.4L90.2 48h-.4zm-4 0L80 42.2v-1.4l7.2 7.2h-1.4zm8.4 0l5.8-5.8v-1.4L92.8 48h1.4zm-4.4-12l.2.2.2-.2h-.4zm-4 0l4.2 4.2 4.2-4.2h-1.4L90 38.8 87.2 36h-1.4zM109.8 48l-9.8-9.8v-1.4l10 10 10-10v1.4l-9.8 9.8h-.4zm-4 0l-5.8-5.8v-1.4l7.2 7.2h-1.4zm8.4 0l5.8-5.8v-1.4l-7.2 7.2h1.4zm-4.4-12l.2.2.2-.2h-.4zm-4 0l4.2 4.2 4.2-4.2h-1.4l-2.8 2.8-2.8-2.8h-1.4z"/><path d="M89.8 48L80 38.2v-1.4l10 10 10-10v1.4L90.2 48h-.4zm-4 0L80 42.2v-1.4l7.2 7.2h-1.4zm8.4 0l5.8-5.8v-1.4L92.8 48h1.4zm-4.4-12l.2.2.2-.2h-.4zm-4 0l4.2 4.2 4.2-4.2h-1.4L90 38.8 87.2 36h-1.4zM109.8 48l-9.8-9.8v-1.4l10 10 10-10v1.4l-9.8 9.8h-.4zm-4 0l-5.8-5.8v-1.4l7.2 7.2h-1.4zm8.4 0l5.8-5.8v-1.4l-7.2 7.2h1.4zm-4.4-12l.2.2.2-.2h-.4zm-4 0l4.2 4.2 4.2-4.2h-1.4l-2.8 2.8-2.8-2.8h-1.4z"/><path d="M89.8 48L80 38.2v-1.4l10 10 10-10v1.4L90.2 48h-.4zm-4 0L80 42.2v-1.4l7.2 7.2h-1.4zm8.4 0l5.8-5.8v-1.4L92.8 48h1.4zm-4.4-12l.2.2.2-.2h-.4zm-4 0l4.2 4.2 4.2-4.2h-1.4L90 38.8 87.2 36h-1.4zM109.8 48l-9.8-9.8v-1.4l10 10 10-10v1.4l-9.8 9.8h-.4zm-4 0l-5.8-5.8v-1.4l7.2 7.2h-1.4zm8.4 0l5.8-5.8v-1.4l-7.2 7.2h1.4zm-4.4-12l.2.2.2-.2h-.4zm-4 0l4.2 4.2 4.2-4.2h-1.4l-2.8 2.8-2.8-2.8h-1.4z"/><path d="M89.8 48L80 38.2v-1.4l10 10 10-10v1.4L90.2 48h-.4zm-4 0L80 42.2v-1.4l7.2 7.2h-1.4zm8.4 0l5.8-5.8v-1.4L92.8 48h1.4zm-4.4-12l.2.2.2-.2h-.4zm-4 0l4.2 4.2 4.2-4.2h-1.4L90 38.8 87.2 36h-1.4zM109.8 48l-9.8-9.8v-1.4l10 10 10-10v1.4l-9.8 9.8h-.4zm-4 0l-5.8-5.8v-1.4l7.2 7.2h-1.4zm8.4 0l5.8-5.8v-1.4l-7.2 7.2h1.4zm-4.4-12l.2.2.2-.2h-.4zm-4 0l4.2 4.2 4.2-4.2h-1.4l-2.8 2.8-2.8-2.8h-1.4z"/><path d="M89.8 60L80 50.2v-1.4l10 10 10-10v1.4L90.2 60h-.4zm-4 0L80 54.2v-1.4l7.2 7.2h-1.4zm8.4 0l5.8-5.8v-1.4L92.8 60h1.4zm-4.4-12l.2.2.2-.2h-.4zm-4 0l4.2 4.2 4.2-4.2h-1.4L90 50.8 87.2 48h-1.4zM109.8 60l-9.8-9.8v-1.4l10 10 10-10v1.4l-9.8 9.8h-.4zm-4 0l-5.8-5.8v-1.4l7.2 7.2h-1.4zm8.4 0l5.8-5.8v-1.4l-7.2 7.2h1.4zm-4.4-12l.2.2.2-.2h-.4zm-4 0l4.2 4.2 4.2-4.2h-1.4l-2.8 2.8-2.8-2.8h-1.4z"/><path d="M89.8 60L80 50.2v-1.4l10 10 10-10v1.4L90.2 60h-.4zm-4 0L80 54.2v-1.4l7.2 7.2h-1.4zm8.4 0l5.8-5.8v-1.4L92.8 60h1.4zm-4.4-12l.2.2.2-.2h-.4zm-4 0l4.2 4.2 4.2-4.2h-1.4L90 50.8 87.2 48h-1.4zM109.8 60l-9.8-9.8v-1.4l10 10 10-10v1.4l-9.8 9.8h-.4zm-4 0l-5.8-5.8v-1.4l7.2 7.2h-1.4zm8.4 0l5.8-5.8v-1.4l-7.2 7.2h1.4zm-4.4-12l.2.2.2-.2h-.4zm-4 0l4.2 4.2 4.2-4.2h-1.4l-2.8 2.8-2.8-2.8h-1.4z"/><path d="M89.8 60L80 50.2v-1.4l10 10 10-10v1.4L90.2 60h-.4zm-4 0L80 54.2v-1.4l7.2 7.2h-1.4zm8.4 0l5.8-5.8v-1.4L92.8 60h1.4zm-4.4-12l.2.2.2-.2h-.4zm-4 0l4.2 4.2 4.2-4.2h-1.4L90 50.8 87.2 48h-1.4zM109.8 60l-9.8-9.8v-1.4l10 10 10-10v1.4l-9.8 9.8h-.4zm-4 0l-5.8-5.8v-1.4l7.2 7.2h-1.4zm8.4 0l5.8-5.8v-1.4l-7.2 7.2h1.4zm-4.4-12l.2.2.2-.2h-.4zm-4 0l4.2 4.2 4.2-4.2h-1.4l-2.8 2.8-2.8-2.8h-1.4z"/><path d="M89.8 60L80 50.2v-1.4l10 10 10-10v1.4L90.2 60h-.4zm-4 0L80 54.2v-1.4l7.2 7.2h-1.4zm8.4 0l5.8-5.8v-1.4L92.8 60h1.4zm-4.4-12l.2.2.2-.2h-.4zm-4 0l4.2 4.2 4.2-4.2h-1.4L90 50.8 87.2 48h-1.4zM109.8 60l-9.8-9.8v-1.4l10 10 10-10v1.4l-9.8 9.8h-.4zm-4 0l-5.8-5.8v-1.4l7.2 7.2h-1.4zm8.4 0l5.8-5.8v-1.4l-7.2 7.2h1.4zm-4.4-12l.2.2.2-.2h-.4zm-4 0l4.2 4.2 4.2-4.2h-1.4l-2.8 2.8-2.8-2.8h-1.4z"/><path d="M89.8 60L80 50.2v-1.4l10 10 10-10v1.4L90.2 60h-.4zm-4 0L80 54.2v-1.4l7.2 7.2h-1.4zm8.4 0l5.8-5.8v-1.4L92.8 60h1.4zm-4.4-12l.2.2.2-.2h-.4zm-4 0l4.2 4.2 4.2-4.2h-1.4L90 50.8 87.2 48h-1.4zM109.8 60l-9.8-9.8v-1.4l10 10 10-10v1.4l-9.8 9.8h-.4zm-4 0l-5.8-5.8v-1.4l7.2 7.2h-1.4zm8.4 0l5.8-5.8v-1.4l-7.2 7.2h1.4zm-4.4-12l.2.2.2-.2h-.4zm-4 0l4.2 4.2 4.2-4.2h-1.4l-2.8 2.8-2.8-2.8h-1.4z"/><path d="M89.8 60L80 50.2v-1.4l10 10 10-10v1.4L90.2 60h-.4zm-4 0L80 54.2v-1.4l7.2 7.2h-1.4zm8.4 0l5.8-5.8v-1.4L92.8 60h1.4zm-4.4-12l.2.2.2-.2h-.4zm-4 0l4.2 4.2 4.2-4.2h-1.4L90 50.8 87.2 48h-1.4zM109.8 60l-9.8-9.8v-1.4l10 10 10-10v1.4l-9.8 9.8h-.4zm-4 0l-5.8-5.8v-1.4l7.2 7.2h-1.4zm8.4 0l5.8-5.8v-1.4l-7.2 7.2h1.4zm-4.4-12l.2.2.2-.2h-.4zm-4 0l4.2 4.2 4.2-4.2h-1.4l-2.8 2.8-2.8-2.8h-1.4z"/><path d="M89.8 60L80 50.2v-1.4l10 10 10-10v1.4L90.2 60h-.4zm-4 0L80 54.2v-1.4l7.2 7.2h-1.4zm8.4 0l5.8-5.8v-1.4L92.8 60h1.4zm-4.4-12l.2.2.2-.2h-.4zm-4 0l4.2 4.2 4.2-4.2h-1.4L90 50.8 87.2 48h-1.4zM109.8 60l-9.8-9.8v-1.4l10 10 10-10v1.4l-9.8 9.8h-.4zm-4 0l-5.8-5.8v-1.4l7.2 7.2h-1.4zm8.4 0l5.8-5.8v-1.4l-7.2 7.2h1.4zm-4.4-12l.2.2.2-.2h-.4zm-4 0l4.2 4.2 4.2-4.2h-1.4l-2.8 2.8-2.8-2.8h-1.4z"/><path d="M89.8 60L80 50.2v-1.4l10 10 10-10v1.4L90.2 60h-.4zm-4 0L80 54.2v-1.4l7.2 7.2h-1.4zm8.4 0l5.8-5.8v-1.4L92.8 60h1.4zm-4.4-12l.2.2.2-.2h-.4zm-4 0l4.2 4.2 4.2-4.2h-1.4L90 50.8 87.2 48h-1.4zM109.8 60l-9.8-9.8v-1.4l10 10 10-10v1.4l-9.8 9.8h-.4zm-4 0l-5.8-5.8v-1.4l7.2 7.2h-1.4zm8.4 0l5.8-5.8v-1.4l-7.2 7.2h1.4zm-4.4-12l.2.2.2-.2h-.4zm-4 0l4.2 4.2 4.2-4.2h-1.4l-2.8 2.8-2.8-2.8h-1.4z"/><path d="M89.8 60L80 50.2v-1.4l10 10 10-10v1.4L90.2 60h-.4zm-4 0L80 54.2v-1.4l7.2 7.2h-1.4zm8.4 0l5.8-5.8v-1.4L92.8 60h1.4zm-4.4-12l.2.2.2-.2h-.4zm-4 0l4.2 4.2 4.2-4.2h-1.4L90 50.8 87.2 48h-1.4zM109.8 60l-9.8-9.8v-1.4l10 10 10-10v1.4l-9.8 9.8h-.4zm-4 0l-5.8-5.8v-1.4l7.2 7.2h-1.4zm8.4 0l5.8-5.8v-1.4l-7.2 7.2h1.4zm-4.4-12l.2.2.2-.2h-.4zm-4 0l4.2 4.2 4.2-4.2h-1.4l-2.8 2.8-2.8-2.8h-1.4z"/><path d="M89.8 60L80 50.2v-1.4l10 10 10-10v1.4L90.2 60h-.4zm-4 0L80 54.2v-1.4l7.2 7.2h-1.4zm8.4 0l5.8-5.8v-1.4L92.8 60h1.4zm-4.4-12l.2.2.2-.2h-.4zm-4 0l4.2 4.2 4.2-4.2h-1.4L90 50.8 87.2 48h-1.4zM109.8 60l-9.8-9.8v-1.4l10 10 10-10v1.4l-9.8 9.8h-.4zm-4 0l-5.8-5.8v-1.4l7.2 7.2h-1.4zm8.4 0l5.8-5.8v-1.4l-7.2 7.2h1.4zm-4.4-12l.2.2.2-.2h-.4zm-4 0l4.2 4.2 4.2-4.2h-1.4l-2.8 2.8-2.8-2.8h-1.4zM49.8 60L40 50.2v-1.4l10 10 10-10v1.4L50.2 60h-.4zm-4 0L40 54.2v-1.4l7.2 7.2h-1.4zm8.4 0l5.8-5.8v-1.4L52.8 60h1.4zm-4.4-12l.2.2.2-.2h-.4zm-4 0l4.2 4.2 4.2-4.2h-1.4L50 50.8 47.2 48h-1.4zM69.8 60L60 50.2v-1.4l10 10 10-10v1.4L70.2 60h-.4zm-4 0L60 54.2v-1.4l7.2 7.2h-1.4zm8.4 0l5.8-5.8v-1.4L72.8 60h1.4zm-4.4-12l.2.2.2-.2h-.4zm-4 0l4.2 4.2 4.2-4.2h-1.4L70 50.8 67.2 48h-1.4z"/><path d="M49.8 60L40 50.2v-1.4l10 10 10-10v1.4L50.2 60h-.4zm-4 0L40 54.2v-1.4l7.2 7.2h-1.4zm8.4 0l5.8-5.8v-1.4L52.8 60h1.4zm-4.4-12l.2.2.2-.2h-.4zm-4 0l4.2 4.2 4.2-4.2h-1.4L50 50.8 47.2 48h-1.4zM69.8 60L60 50.2v-1.4l10 10 10-10v1.4L70.2 60h-.4zm-4 0L60 54.2v-1.4l7.2 7.2h-1.4zm8.4 0l5.8-5.8v-1.4L72.8 60h1.4zm-4.4-12l.2.2.2-.2h-.4zm-4 0l4.2 4.2 4.2-4.2h-1.4L70 50.8 67.2 48h-1.4z"/><path d="M49.8 60L40 50.2v-1.4l10 10 10-10v1.4L50.2 60h-.4zm-4 0L40 54.2v-1.4l7.2 7.2h-1.4zm8.4 0l5.8-5.8v-1.4L52.8 60h1.4zm-4.4-12l.2.2.2-.2h-.4zm-4 0l4.2 4.2 4.2-4.2h-1.4L50 50.8 47.2 48h-1.4zM69.8 60L60 50.2v-1.4l10 10 10-10v1.4L70.2 60h-.4zm-4 0L60 54.2v-1.4l7.2 7.2h-1.4zm8.4 0l5.8-5.8v-1.4L72.8 60h1.4zm-4.4-12l.2.2.2-.2h-.4zm-4 0l4.2 4.2 4.2-4.2h-1.4L70 50.8 67.2 48h-1.4z"/><path d="M49.8 60L40 50.2v-1.4l10 10 10-10v1.4L50.2 60h-.4zm-4 0L40 54.2v-1.4l7.2 7.2h-1.4zm8.4 0l5.8-5.8v-1.4L52.8 60h1.4zm-4.4-12l.2.2.2-.2h-.4zm-4 0l4.2 4.2 4.2-4.2h-1.4L50 50.8 47.2 48h-1.4zM69.8 60L60 50.2v-1.4l10 10 10-10v1.4L70.2 60h-.4zm-4 0L60 54.2v-1.4l7.2 7.2h-1.4zm8.4 0l5.8-5.8v-1.4L72.8 60h1.4zm-4.4-12l.2.2.2-.2h-.4zm-4 0l4.2 4.2 4.2-4.2h-1.4L70 50.8 67.2 48h-1.4z"/><path d="M49.8 60L40 50.2v-1.4l10 10 10-10v1.4L50.2 60h-.4zm-4 0L40 54.2v-1.4l7.2 7.2h-1.4zm8.4 0l5.8-5.8v-1.4L52.8 60h1.4zm-4.4-12l.2.2.2-.2h-.4zm-4 0l4.2 4.2 4.2-4.2h-1.4L50 50.8 47.2 48h-1.4zM69.8 60L60 50.2v-1.4l10 10 10-10v1.4L70.2 60h-.4zm-4 0L60 54.2v-1.4l7.2 7.2h-1.4zm8.4 0l5.8-5.8v-1.4L72.8 60h1.4zm-4.4-12l.2.2.2-.2h-.4zm-4 0l4.2 4.2 4.2-4.2h-1.4L70 50.8 67.2 48h-1.4z"/><path d="M49.8 60L40 50.2v-1.4l10 10 10-10v1.4L50.2 60h-.4zm-4 0L40 54.2v-1.4l7.2 7.2h-1.4zm8.4 0l5.8-5.8v-1.4L52.8 60h1.4zm-4.4-12l.2.2.2-.2h-.4zm-4 0l4.2 4.2 4.2-4.2h-1.4L50 50.8 47.2 48h-1.4zM69.8 60L60 50.2v-1.4l10 10 10-10v1.4L70.2 60h-.4zm-4 0L60 54.2v-1.4l7.2 7.2h-1.4zm8.4 0l5.8-5.8v-1.4L72.8 60h1.4zm-4.4-12l.2.2.2-.2h-.4zm-4 0l4.2 4.2 4.2-4.2h-1.4L70 50.8 67.2 48h-1.4z"/><path d="M49.8 60L40 50.2v-1.4l10 10 10-10v1.4L50.2 60h-.4zm-4 0L40 54.2v-1.4l7.2 7.2h-1.4zm8.4 0l5.8-5.8v-1.4L52.8 60h1.4zm-4.4-12l.2.2.2-.2h-.4zm-4 0l4.2 4.2 4.2-4.2h-1.4L50 50.8 47.2 48h-1.4zM69.8 60L60 50.2v-1.4l10 10 10-10v1.4L70.2 60h-.4zm-4 0L60 54.2v-1.4l7.2 7.2h-1.4zm8.4 0l5.8-5.8v-1.4L72.8 60h1.4zm-4.4-12l.2.2.2-.2h-.4zm-4 0l4.2 4.2 4.2-4.2h-1.4L70 50.8 67.2 48h-1.4z"/><path d="M49.8 60L40 50.2v-1.4l10 10 10-10v1.4L50.2 60h-.4zm-4 0L40 54.2v-1.4l7.2 7.2h-1.4zm8.4 0l5.8-5.8v-1.4L52.8 60h1.4zm-4.4-12l.2.2.2-.2h-.4zm-4 0l4.2 4.2 4.2-4.2h-1.4L50 50.8 47.2 48h-1.4zM69.8 60L60 50.2v-1.4l10 10 10-10v1.4L70.2 60h-.4zm-4 0L60 54.2v-1.4l7.2 7.2h-1.4zm8.4 0l5.8-5.8v-1.4L72.8 60h1.4zm-4.4-12l.2.2.2-.2h-.4zm-4 0l4.2 4.2 4.2-4.2h-1.4L70 50.8 67.2 48h-1.4z"/><path d="M49.8 60L40 50.2v-1.4l10 10 10-10v1.4L50.2 60h-.4zm-4 0L40 54.2v-1.4l7.2 7.2h-1.4zm8.4 0l5.8-5.8v-1.4L52.8 60h1.4zm-4.4-12l.2.2.2-.2h-.4zm-4 0l4.2 4.2 4.2-4.2h-1.4L50 50.8 47.2 48h-1.4zM69.8 60L60 50.2v-1.4l10 10 10-10v1.4L70.2 60h-.4zm-4 0L60 54.2v-1.4l7.2 7.2h-1.4zm8.4 0l5.8-5.8v-1.4L72.8 60h1.4zm-4.4-12l.2.2.2-.2h-.4zm-4 0l4.2 4.2 4.2-4.2h-1.4L70 50.8 67.2 48h-1.4z"/><path d="M49.8 60L40 50.2v-1.4l10 10 10-10v1.4L50.2 60h-.4zm-4 0L40 54.2v-1.4l7.2 7.2h-1.4zm8.4 0l5.8-5.8v-1.4L52.8 60h1.4zm-4.4-12l.2.2.2-.2h-.4zm-4 0l4.2 4.2 4.2-4.2h-1.4L50 50.8 47.2 48h-1.4zM69.8 60L60 50.2v-1.4l10 10 10-10v1.4L70.2 60h-.4zm-4 0L60 54.2v-1.4l7.2 7.2h-1.4zm8.4 0l5.8-5.8v-1.4L72.8 60h1.4zm-4.4-12l.2.2.2-.2h-.4zm-4 0l4.2 4.2 4.2-4.2h-1.4L70 50.8 67.2 48h-1.4z"/><path d="M49.8 48L40 38.2v-1.4l10 10 10-10v1.4L50.2 48h-.4zm-4 0L40 42.2v-1.4l7.2 7.2h-1.4zm8.4 0l5.8-5.8v-1.4L52.8 48h1.4zm-4.4-12l.2.2.2-.2h-.4zm-4 0l4.2 4.2 4.2-4.2h-1.4L50 38.8 47.2 36h-1.4zM69.8 48L60 38.2v-1.4l10 10 10-10v1.4L70.2 48h-.4zm-4 0L60 42.2v-1.4l7.2 7.2h-1.4zm8.4 0l5.8-5.8v-1.4L72.8 48h1.4zm-4.4-12l.2.2.2-.2h-.4zm-4 0l4.2 4.2 4.2-4.2h-1.4L70 38.8 67.2 36h-1.4z"/><path d="M49.8 48L40 38.2v-1.4l10 10 10-10v1.4L50.2 48h-.4zm-4 0L40 42.2v-1.4l7.2 7.2h-1.4zm8.4 0l5.8-5.8v-1.4L52.8 48h1.4zm-4.4-12l.2.2.2-.2h-.4zm-4 0l4.2 4.2 4.2-4.2h-1.4L50 38.8 47.2 36h-1.4zM69.8 48L60 38.2v-1.4l10 10 10-10v1.4L70.2 48h-.4zm-4 0L60 42.2v-1.4l7.2 7.2h-1.4zm8.4 0l5.8-5.8v-1.4L72.8 48h1.4zm-4.4-12l.2.2.2-.2h-.4zm-4 0l4.2 4.2 4.2-4.2h-1.4L70 38.8 67.2 36h-1.4z"/><path d="M49.8 48L40 38.2v-1.4l10 10 10-10v1.4L50.2 48h-.4zm-4 0L40 42.2v-1.4l7.2 7.2h-1.4zm8.4 0l5.8-5.8v-1.4L52.8 48h1.4zm-4.4-12l.2.2.2-.2h-.4zm-4 0l4.2 4.2 4.2-4.2h-1.4L50 38.8 47.2 36h-1.4zM69.8 48L60 38.2v-1.4l10 10 10-10v1.4L70.2 48h-.4zm-4 0L60 42.2v-1.4l7.2 7.2h-1.4zm8.4 0l5.8-5.8v-1.4L72.8 48h1.4zm-4.4-12l.2.2.2-.2h-.4zm-4 0l4.2 4.2 4.2-4.2h-1.4L70 38.8 67.2 36h-1.4z"/><path d="M49.8 48L40 38.2v-1.4l10 10 10-10v1.4L50.2 48h-.4zm-4 0L40 42.2v-1.4l7.2 7.2h-1.4zm8.4 0l5.8-5.8v-1.4L52.8 48h1.4zm-4.4-12l.2.2.2-.2h-.4zm-4 0l4.2 4.2 4.2-4.2h-1.4L50 38.8 47.2 36h-1.4zM69.8 48L60 38.2v-1.4l10 10 10-10v1.4L70.2 48h-.4zm-4 0L60 42.2v-1.4l7.2 7.2h-1.4zm8.4 0l5.8-5.8v-1.4L72.8 48h1.4zm-4.4-12l.2.2.2-.2h-.4zm-4 0l4.2 4.2 4.2-4.2h-1.4L70 38.8 67.2 36h-1.4z"/><path d="M49.8 48L40 38.2v-1.4l10 10 10-10v1.4L50.2 48h-.4zm-4 0L40 42.2v-1.4l7.2 7.2h-1.4zm8.4 0l5.8-5.8v-1.4L52.8 48h1.4zm-4.4-12l.2.2.2-.2h-.4zm-4 0l4.2 4.2 4.2-4.2h-1.4L50 38.8 47.2 36h-1.4zM69.8 48L60 38.2v-1.4l10 10 10-10v1.4L70.2 48h-.4zm-4 0L60 42.2v-1.4l7.2 7.2h-1.4zm8.4 0l5.8-5.8v-1.4L72.8 48h1.4zm-4.4-12l.2.2.2-.2h-.4zm-4 0l4.2 4.2 4.2-4.2h-1.4L70 38.8 67.2 36h-1.4z"/><path d="M49.8 48L40 38.2v-1.4l10 10 10-10v1.4L50.2 48h-.4zm-4 0L40 42.2v-1.4l7.2 7.2h-1.4zm8.4 0l5.8-5.8v-1.4L52.8 48h1.4zm-4.4-12l.2.2.2-.2h-.4zm-4 0l4.2 4.2 4.2-4.2h-1.4L50 38.8 47.2 36h-1.4zM69.8 48L60 38.2v-1.4l10 10 10-10v1.4L70.2 48h-.4zm-4 0L60 42.2v-1.4l7.2 7.2h-1.4zm8.4 0l5.8-5.8v-1.4L72.8 48h1.4zm-4.4-12l.2.2.2-.2h-.4zm-4 0l4.2 4.2 4.2-4.2h-1.4L70 38.8 67.2 36h-1.4z"/><path d="M49.8 48L40 38.2v-1.4l10 10 10-10v1.4L50.2 48h-.4zm-4 0L40 42.2v-1.4l7.2 7.2h-1.4zm8.4 0l5.8-5.8v-1.4L52.8 48h1.4zm-4.4-12l.2.2.2-.2h-.4zm-4 0l4.2 4.2 4.2-4.2h-1.4L50 38.8 47.2 36h-1.4zM69.8 48L60 38.2v-1.4l10 10 10-10v1.4L70.2 48h-.4zm-4 0L60 42.2v-1.4l7.2 7.2h-1.4zm8.4 0l5.8-5.8v-1.4L72.8 48h1.4zm-4.4-12l.2.2.2-.2h-.4zm-4 0l4.2 4.2 4.2-4.2h-1.4L70 38.8 67.2 36h-1.4z"/><path d="M49.8 48L40 38.2v-1.4l10 10 10-10v1.4L50.2 48h-.4zm-4 0L40 42.2v-1.4l7.2 7.2h-1.4zm8.4 0l5.8-5.8v-1.4L52.8 48h1.4zm-4.4-12l.2.2.2-.2h-.4zm-4 0l4.2 4.2 4.2-4.2h-1.4L50 38.8 47.2 36h-1.4zM69.8 48L60 38.2v-1.4l10 10 10-10v1.4L70.2 48h-.4zm-4 0L60 42.2v-1.4l7.2 7.2h-1.4zm8.4 0l5.8-5.8v-1.4L72.8 48h1.4zm-4.4-12l.2.2.2-.2h-.4zm-4 0l4.2 4.2 4.2-4.2h-1.4L70 38.8 67.2 36h-1.4z"/><path d="M49.8 48L40 38.2v-1.4l10 10 10-10v1.4L50.2 48h-.4zm-4 0L40 42.2v-1.4l7.2 7.2h-1.4zm8.4 0l5.8-5.8v-1.4L52.8 48h1.4zm-4.4-12l.2.2.2-.2h-.4zm-4 0l4.2 4.2 4.2-4.2h-1.4L50 38.8 47.2 36h-1.4zM69.8 48L60 38.2v-1.4l10 10 10-10v1.4L70.2 48h-.4zm-4 0L60 42.2v-1.4l7.2 7.2h-1.4zm8.4 0l5.8-5.8v-1.4L72.8 48h1.4zm-4.4-12l.2.2.2-.2h-.4zm-4 0l4.2 4.2 4.2-4.2h-1.4L70 38.8 67.2 36h-1.4z"/><path d="M49.8 48L40 38.2v-1.4l10 10 10-10v1.4L50.2 48h-.4zm-4 0L40 42.2v-1.4l7.2 7.2h-1.4zm8.4 0l5.8-5.8v-1.4L52.8 48h1.4zm-4.4-12l.2.2.2-.2h-.4zm-4 0l4.2 4.2 4.2-4.2h-1.4L50 38.8 47.2 36h-1.4zM69.8 48L60 38.2v-1.4l10 10 10-10v1.4L70.2 48h-.4zm-4 0L60 42.2v-1.4l7.2 7.2h-1.4zm8.4 0l5.8-5.8v-1.4L72.8 48h1.4zm-4.4-12l.2.2.2-.2h-.4zm-4 0l4.2 4.2 4.2-4.2h-1.4L70 38.8 67.2 36h-1.4zM49.8 24L40 14.2v-1.4l10 10 10-10v1.4L50.2 24h-.4zm-4 0L40 18.2v-1.4l7.2 7.2h-1.4zm8.4 0l5.8-5.8v-1.4L52.8 24h1.4zm-4.4-12l.2.2.2-.2h-.4zm-4 0l4.2 4.2 4.2-4.2h-1.4L50 14.8 47.2 12h-1.4zM69.8 24L60 14.2v-1.4l10 10 10-10v1.4L70.2 24h-.4zm-4 0L60 18.2v-1.4l7.2 7.2h-1.4zm8.4 0l5.8-5.8v-1.4L72.8 24h1.4zm-4.4-12l.2.2.2-.2h-.4zm-4 0l4.2 4.2 4.2-4.2h-1.4L70 14.8 67.2 12h-1.4z"/><path d="M49.8 24L40 14.2v-1.4l10 10 10-10v1.4L50.2 24h-.4zm-4 0L40 18.2v-1.4l7.2 7.2h-1.4zm8.4 0l5.8-5.8v-1.4L52.8 24h1.4zm-4.4-12l.2.2.2-.2h-.4zm-4 0l4.2 4.2 4.2-4.2h-1.4L50 14.8 47.2 12h-1.4zM69.8 24L60 14.2v-1.4l10 10 10-10v1.4L70.2 24h-.4zm-4 0L60 18.2v-1.4l7.2 7.2h-1.4zm8.4 0l5.8-5.8v-1.4L72.8 24h1.4zm-4.4-12l.2.2.2-.2h-.4zm-4 0l4.2 4.2 4.2-4.2h-1.4L70 14.8 67.2 12h-1.4zM9.8 24L0 14.2v-1.4l10 10 10-10v1.4L10.2 24h-.4zm-4 0L0 18.2v-1.4L7.2 24H5.8zm8.4 0l5.8-5.8v-1.4L12.8 24h1.4zM9.8 12l.2.2.2-.2h-.4zm-4 0l4.2 4.2 4.2-4.2h-1.4L10 14.8 7.2 12H5.8zM29.8 24L20 14.2v-1.4l10 10 10-10v1.4L30.2 24h-.4zm-4 0L20 18.2v-1.4l7.2 7.2h-1.4zm8.4 0l5.8-5.8v-1.4L32.8 24h1.4zm-4.4-12l.2.2.2-.2h-.4zm-4 0l4.2 4.2 4.2-4.2h-1.4L30 14.8 27.2 12h-1.4z"/></g></svg>