<svg width="70" height="86" viewBox="0 0 70 86" fill="none" xmlns="http://www.w3.org/2000/svg">
<rect x="28.3477" y="49.2009" width="41.4999" height="18.3358" fill="#FFAE00"/>
<rect x="51.5098" width="18.3358" height="67.5367" fill="#FFAE00"/>
<rect x="0.292969" width="18.3358" height="67.5367" fill="#FFAE00"/>
<rect x="28.3477" y="27.5039" width="13.4462" height="13.4462" fill="#FFAE00"/>
<rect x="67.7695" width="18.3358" height="67.5367" transform="rotate(90 67.7695 0)" fill="#FFAE00"/>
<path d="M30.2402 85.1696H33.174C33.1536 82.2155 33.1128 76.0995 33.1128 75.2683C33.1862 76.1729 35.7308 82.2461 36.9939 85.1696H39.6526C39.8482 85.1696 42.3215 78.5687 43.5337 75.2683L43.442 85.1696H46.6507V72.9763H42.0057C40.824 75.7674 38.4608 81.4719 38.4608 81.9608C38.4608 81.3496 36.1586 75.7165 35.0075 72.9763H30.2402V85.1696Z" fill="white"/>
<path d="M12.3029 73.3124V75.8794C8.05516 74.0764 3.7157 75.2988 3.7157 79.0576C3.7157 81.4719 4.9992 82.4803 6.52718 82.9082C7.74957 83.2504 9.19605 82.9693 9.7665 82.7859V80.4328H6.8939V78.2325H13.0058V84.3445C12.3213 84.9557 8.75803 85.5677 6.37439 85.3224C4.29633 85.1085 0.292969 84.0694 0.292969 79.0576C0.292969 76.7962 2.585 70.8371 12.3029 73.3124Z" fill="white"/>
<path fill-rule="evenodd" clip-rule="evenodd" d="M14.2266 85.1696H17.7715L18.7799 82.4498H23.8528L24.8613 85.1696H28.4673L23.3333 72.9763H19.4828L14.2266 85.1696ZM19.4839 80.3412H23.1205C22.949 79.8455 22.715 79.2572 22.4742 78.6517C21.943 77.3159 21.3786 75.8969 21.3786 75.2071H21.2564C21.2334 75.9668 20.5861 77.5761 20.0069 79.0163C19.8172 79.488 19.6347 79.9416 19.4839 80.3412Z" fill="white"/>
<path d="M49.9209 72.9763V85.1696H58.5693V82.9387H53.1602V80.1578H57.8664V77.927H53.1602V75.2377H58.2331V72.9763H49.9209Z" fill="white"/>
<path d="M60.1897 84.6804V82.0217C63.0012 83.9286 66.5767 83.3358 66.5767 82.0217C66.5767 80.9522 64.7126 80.4039 63.5513 79.9742C61.1065 79.0697 60.1592 78.1713 60.1592 76.0932C60.1592 72.9394 65.9655 72.1204 69.3576 73.2511V75.7875C68.6975 75.2986 66.7173 74.9319 65.8433 74.9319C64.8898 74.9319 63.5513 75.2008 63.5513 76.032C63.5513 76.8632 64.6209 77.56 65.7516 77.8656C67.3437 78.2959 69.9994 78.9352 69.9994 82.0522C69.9994 83.2746 68.8992 85.3832 64.407 85.3832C63.3313 85.3832 61.4732 85.2916 60.1897 84.6804Z" fill="white"/>
</svg>
