<svg width="110" height="50" viewBox="0 0 110 50" fill="none" xmlns="http://www.w3.org/2000/svg">
<rect width="110" height="50" fill="#5463E6"/>
<path d="M44.3422 36.4578H62.8137L61.9315 33.6014L64.0417 35.4124L65.9758 37.1457L69.4994 40.0902V12.2062C69.4113 10.4729 67.9189 9 66.0691 9L44.3487 9.00389C42.5001 9.00389 41 10.4794 41 12.2127V33.2504C41 35.0782 42.4975 36.4578 44.3422 36.4578ZM58.0063 16.3619L57.9636 16.3774L57.9791 16.3619H58.0063ZM48.121 18.0058C50.4955 16.2777 52.6964 16.3606 52.6964 16.3606L52.8739 16.5355C49.9682 17.2285 48.6508 18.5266 48.6508 18.5266C48.6508 18.5266 49.0031 18.3543 49.6185 18.0913C53.5319 16.5523 57.8055 16.6637 61.7618 18.6121C61.7618 18.6121 60.4417 17.3982 57.7149 16.621L57.9558 16.3839C58.3328 16.3852 60.3277 16.4552 62.4626 18.0162C62.4626 18.0162 64.8514 22.0967 64.8514 27.11C64.7723 27.0142 63.3694 29.2682 59.7591 29.3459C59.7591 29.3459 59.1476 28.6542 58.7123 28.0505C60.8239 27.4443 61.6141 26.2317 61.6141 26.2317C60.921 26.6683 60.2889 26.9274 59.7759 27.1865C58.987 27.5336 58.1968 27.7046 57.4079 27.8795C53.6718 28.4858 51.5746 27.4715 49.5926 26.667L48.915 26.3224C48.915 26.3224 49.704 27.5349 51.7313 28.1412C51.1989 28.7488 50.6716 29.4392 50.6716 29.4392C47.0626 29.3537 45.7464 27.0997 45.7464 27.0997C45.7464 22.0786 48.121 18.0058 48.121 18.0058Z" fill="white"/>
<path d="M58.2395 25.5439C59.1605 25.5439 59.9106 24.7666 59.9106 23.808C59.9106 22.8559 59.1644 22.0786 58.2395 22.0786V22.0825C57.3223 22.0825 56.571 22.8572 56.5684 23.8158C56.5684 24.7666 57.3184 25.5439 58.2395 25.5439Z" fill="white"/>
<path d="M52.257 25.5439C53.1781 25.5439 53.9281 24.7666 53.9281 23.808C53.9281 22.8559 53.1833 22.0786 52.2622 22.0786L52.257 22.0825C51.336 22.0825 50.5859 22.8572 50.5859 23.8158C50.5859 24.7666 51.336 25.5439 52.257 25.5439Z" fill="white"/>
</svg>
