<svg width="110" height="50" viewBox="0 0 110 50" fill="none" xmlns="http://www.w3.org/2000/svg">
<rect width="110" height="50" fill="#110F0E"/>
<path d="M70.1275 14.2907L73 11.5909V11H63.049L55.957 28.3423L47.8885 11H37.4545V11.5909L40.81 15.5596C41.137 15.8528 41.308 16.2817 41.2645 16.7135V32.3095C41.368 32.8709 41.182 33.4486 40.78 33.8568L37 38.3575V38.9411H47.7175V38.3501L43.9375 33.8568C43.528 33.4472 43.3345 32.8798 43.417 32.3095V18.8194L52.825 38.9484H53.9185L62.008 18.8194V34.8545C62.008 35.2775 62.008 35.3644 61.726 35.6415L58.816 38.4076V39H72.934V38.4091L70.129 35.7107C69.883 35.528 69.7555 35.2215 69.808 34.9238V15.0777C69.7555 14.7785 69.8815 14.472 70.1275 14.2907Z" fill="white"/>
</svg>
