<svg width="110" height="50" viewBox="0 0 110 50" fill="none" xmlns="http://www.w3.org/2000/svg">
<rect width="110" height="50" fill="#4899DF"/>
<path d="M68.5065 17.9828C69.8892 16.9877 71.0522 15.7456 72 14.3155V14.3141C70.7349 14.8755 69.3891 15.2488 67.9838 15.4297C69.4288 14.5553 70.5323 13.1811 71.0508 11.5255C69.7036 12.3397 68.2161 12.9141 66.6308 13.2357C65.3516 11.8544 63.5283 11 61.5393 11C57.6803 11 54.5736 14.1748 54.5736 18.0661C54.5736 18.6261 54.6203 19.1645 54.7351 19.6771C48.9409 19.3899 43.8126 16.5756 40.3672 12.2866C39.7666 13.3448 39.4124 14.5553 39.4124 15.8576C39.4124 18.3044 40.6548 20.4726 42.5093 21.729C41.3887 21.7075 40.2908 21.3772 39.36 20.8589V20.9364C39.36 24.3696 41.7754 27.2213 44.9445 27.879C44.3764 28.0369 43.7587 28.1116 43.117 28.1116C42.6707 28.1116 42.2202 28.0857 41.7981 27.991C42.7005 30.7881 45.2647 32.8457 48.3105 32.9132C45.939 34.7928 42.9272 35.9257 39.6674 35.9257C39.0965 35.9257 38.5482 35.8999 38 35.8295C41.0883 37.847 44.7462 39 48.693 39C60.9939 39 69.0108 28.5984 68.5065 17.9828Z" fill="white"/>
</svg>
